M48
;Layer_Color=9474304
;FILE_FORMAT=2:5
INCH,LZ
;TYPE=PLATED
T1F00S00C0.01181
T2F00S00C0.03150
T3F00S00C0.05900
;TYPE=NON_PLATED
T4F00S00C0.02559
T5F00S00C0.15700
%
T01
X007126Y0099213
X005
X0008268Y0090551
X0007874Y0053937
X-0001575Y0050787
X-0004331Y0041339
X-0006693Y0060236
X-0017717Y007126
X-0022441Y0053937
X-0027559Y0036614
X-0041339Y0042126
X-0050394Y0066142
Y0070866
X-007874Y0066929
X-0069291Y009252
X-0088189Y0090158
T02
X-0016811Y0111221
X-0006811
X0054803Y0113189
X0064803
X0074803
X0084803
X0094803
T03
X-0122205Y-0054803
X-0097205Y-0064803
X-0047402Y-0054803
X-0022402Y-0064803
X0027402Y-0054803
X0052402Y-0064803
X0102205Y-0054803
X0127205Y-0064803
Y001
X0102205Y002
Y0094803
X0127205Y0084803
X0052402
X0027402Y0094803
X-0022402Y0084803
X-0047402Y0094803
Y002
X-0022402Y001
X0027402Y002
X0052402Y001
X-0097205
X-0122205Y002
Y0094803
X-0097205Y0084803
T04
X-0067362Y0103347
X-0090118
T05
X-0112205Y-0074803
X-0037402
X0037402
X0112205
Y-0
Y0074803
X0037402
Y-0
X-0037402
Y0074803
X-0112205
Y-0
M30
