G04*
G04 #@! TF.GenerationSoftware,Altium Limited,Altium Designer,19.1.8 (144)*
G04*
G04 Layer_Color=8388736*
%FSLAX42Y42*%
%MOMM*%
G71*
G01*
G75*
%ADD10C,0.45*%
%ADD11C,0.25*%
%ADD12C,0.23*%
%ADD13R,0.80X1.55*%
%ADD14R,0.50X1.55*%
%ADD15R,2.38X2.20*%
%ADD16R,1.10X1.00*%
%ADD17R,1.00X1.10*%
%ADD18R,1.40X1.00*%
%ADD19R,1.09X1.09*%
%ADD20R,1.40X0.70*%
%ADD21R,0.70X1.40*%
G04:AMPARAMS|DCode=22|XSize=0.7mm|YSize=1.3mm|CornerRadius=0.11mm|HoleSize=0mm|Usage=FLASHONLY|Rotation=0.000|XOffset=0mm|YOffset=0mm|HoleType=Round|Shape=RoundedRectangle|*
%AMROUNDEDRECTD22*
21,1,0.70,1.08,0,0,0.0*
21,1,0.48,1.30,0,0,0.0*
1,1,0.22,0.24,-0.54*
1,1,0.22,-0.24,-0.54*
1,1,0.22,-0.24,0.54*
1,1,0.22,0.24,0.54*
%
%ADD22ROUNDEDRECTD22*%
%ADD23R,0.70X1.30*%
%ADD24C,0.85*%
%ADD25C,1.60*%
%ADD26C,2.30*%
%ADD27R,2.30X2.30*%
%ADD28C,3.99*%
%ADD29C,0.90*%
D10*
X-913Y-2438D02*
X-1012D01*
Y-2513D01*
X-963D01*
X-1012D01*
Y-2588D01*
X-863Y-2438D02*
X-763D01*
Y-2463D01*
X-863Y-2563D01*
Y-2588D01*
X-763D01*
X-713Y-2488D02*
X-688D01*
Y-2513D01*
X-713D01*
Y-2488D01*
Y-2563D02*
X-688D01*
Y-2588D01*
X-713D01*
Y-2563D01*
X-488Y-2588D02*
X-588D01*
X-488Y-2488D01*
Y-2463D01*
X-513Y-2438D01*
X-563D01*
X-588Y-2463D01*
X-363Y-2588D02*
Y-2438D01*
X-438Y-2513D01*
X-338D01*
X-288Y-2588D02*
X-238D01*
X-263D01*
Y-2438D01*
X-288Y-2463D01*
X-163D02*
X-138Y-2438D01*
X-88D01*
X-63Y-2463D01*
Y-2563D01*
X-88Y-2588D01*
X-138D01*
X-163Y-2563D01*
Y-2463D01*
X87Y-2588D02*
X-13D01*
X87Y-2488D01*
Y-2463D01*
X62Y-2438D01*
X12D01*
X-13Y-2463D01*
X137D02*
X162Y-2438D01*
X212D01*
X237Y-2463D01*
Y-2563D01*
X212Y-2588D01*
X162D01*
X137Y-2563D01*
Y-2463D01*
X387Y-2588D02*
X287D01*
X387Y-2488D01*
Y-2463D01*
X362Y-2438D01*
X312D01*
X287Y-2463D01*
X437D02*
X462Y-2438D01*
X512D01*
X537Y-2463D01*
Y-2563D01*
X512Y-2588D01*
X462D01*
X437Y-2563D01*
Y-2463D01*
X-1012Y-2188D02*
Y-2338D01*
Y-2263D01*
X-913D01*
Y-2188D01*
Y-2338D01*
X-838D02*
X-788D01*
X-763Y-2313D01*
Y-2263D01*
X-788Y-2238D01*
X-838D01*
X-863Y-2263D01*
Y-2313D01*
X-838Y-2338D01*
X-688Y-2213D02*
Y-2238D01*
X-713D01*
X-663D01*
X-688D01*
Y-2313D01*
X-663Y-2338D01*
X-588Y-2263D02*
X-488D01*
X-438Y-2188D02*
Y-2338D01*
X-363D01*
X-338Y-2313D01*
Y-2288D01*
X-363Y-2263D01*
X-438D01*
X-363D01*
X-338Y-2238D01*
Y-2213D01*
X-363Y-2188D01*
X-438D01*
X-263Y-2338D02*
X-213D01*
X-188Y-2313D01*
Y-2263D01*
X-213Y-2238D01*
X-263D01*
X-288Y-2263D01*
Y-2313D01*
X-263Y-2338D01*
X-113Y-2238D02*
X-63D01*
X-38Y-2263D01*
Y-2338D01*
X-113D01*
X-138Y-2313D01*
X-113Y-2288D01*
X-38D01*
X12Y-2238D02*
Y-2338D01*
Y-2288D01*
X37Y-2263D01*
X62Y-2238D01*
X87D01*
X262Y-2188D02*
Y-2338D01*
X187D01*
X162Y-2313D01*
Y-2263D01*
X187Y-2238D01*
X262D01*
X462Y-2188D02*
Y-2288D01*
X512Y-2338D01*
X562Y-2288D01*
Y-2188D01*
X612Y-2338D02*
X662D01*
X637D01*
Y-2188D01*
X612Y-2213D01*
X737Y-2338D02*
Y-2313D01*
X762D01*
Y-2338D01*
X737D01*
X862Y-2213D02*
X887Y-2188D01*
X937D01*
X962Y-2213D01*
Y-2313D01*
X937Y-2338D01*
X887D01*
X862Y-2313D01*
Y-2213D01*
D11*
X-770Y3047D02*
Y2967D01*
X-730D01*
X-717Y2981D01*
Y2994D01*
X-730Y3007D01*
X-770D01*
X-730D01*
X-717Y3021D01*
Y3034D01*
X-730Y3047D01*
X-770D01*
X-650D02*
X-677D01*
X-690Y3034D01*
Y2981D01*
X-677Y2967D01*
X-650D01*
X-637Y2981D01*
Y3034D01*
X-650Y3047D01*
X-570D02*
X-597D01*
X-610Y3034D01*
Y2981D01*
X-597Y2967D01*
X-570D01*
X-557Y2981D01*
Y3034D01*
X-570Y3047D01*
X-530D02*
X-477D01*
X-503D01*
Y2967D01*
X-450Y3007D02*
X-397D01*
X-330Y3047D02*
X-357D01*
X-370Y3034D01*
Y2981D01*
X-357Y2967D01*
X-330D01*
X-317Y2981D01*
Y3034D01*
X-330Y3047D01*
X-290Y2941D02*
Y3021D01*
X-250D01*
X-237Y3007D01*
Y2981D01*
X-250Y2967D01*
X-290D01*
X-197Y3034D02*
Y3021D01*
X-210D01*
X-184D01*
X-197D01*
Y2981D01*
X-184Y2967D01*
X-144D02*
X-117D01*
X-130D01*
Y3021D01*
X-144D01*
X-64Y2967D02*
X-37D01*
X-24Y2981D01*
Y3007D01*
X-37Y3021D01*
X-64D01*
X-77Y3007D01*
Y2981D01*
X-64Y2967D01*
X3D02*
Y3021D01*
X43D01*
X56Y3007D01*
Y2967D01*
X83D02*
X123D01*
X136Y2981D01*
X123Y2994D01*
X96D01*
X83Y3007D01*
X96Y3021D01*
X136D01*
D12*
X1165Y2992D02*
Y3072D01*
X1205D01*
X1218Y3059D01*
Y3032D01*
X1205Y3019D01*
X1165D01*
X1192D02*
X1218Y2992D01*
X1298Y3059D02*
X1285Y3072D01*
X1258D01*
X1245Y3059D01*
Y3046D01*
X1258Y3032D01*
X1285D01*
X1298Y3019D01*
Y3006D01*
X1285Y2992D01*
X1258D01*
X1245Y3006D01*
X1325Y3072D02*
X1378D01*
X1352D01*
Y2992D01*
X1405D02*
X1458Y3046D01*
X1485Y3072D02*
Y2992D01*
X1525D01*
X1538Y3006D01*
Y3059D01*
X1525Y3072D01*
X1485D01*
X1565D02*
X1592D01*
X1578D01*
Y2992D01*
X1565D01*
X1592D01*
X1672Y3072D02*
X1645D01*
X1632Y3059D01*
Y3006D01*
X1645Y2992D01*
X1672D01*
X1685Y3006D01*
Y3059D01*
X1672Y3072D01*
X1711Y2992D02*
X1765Y3046D01*
X1845Y3059D02*
X1831Y3072D01*
X1805D01*
X1791Y3059D01*
Y3006D01*
X1805Y2992D01*
X1831D01*
X1845Y3006D01*
Y3032D01*
X1818D01*
X1871Y2992D02*
Y3072D01*
X1925Y2992D01*
Y3072D01*
X1951D02*
Y2992D01*
X1991D01*
X2005Y3006D01*
Y3059D01*
X1991Y3072D01*
X1951D01*
X2031Y2992D02*
X2085Y3046D01*
X2165Y3059D02*
X2151Y3072D01*
X2125D01*
X2111Y3059D01*
Y3006D01*
X2125Y2992D01*
X2151D01*
X2165Y3006D01*
X2191Y3072D02*
Y2992D01*
X2245D01*
X2271Y3072D02*
Y2992D01*
Y3019D01*
X2325Y3072D01*
X2285Y3032D01*
X2325Y2992D01*
X2351D02*
X2405Y3046D01*
X2431Y3072D02*
Y3019D01*
X2458Y2992D01*
X2485Y3019D01*
Y3072D01*
X2565Y3059D02*
X2551Y3072D01*
X2525D01*
X2511Y3059D01*
Y3006D01*
X2525Y2992D01*
X2551D01*
X2565Y3006D01*
X2645Y3059D02*
X2631Y3072D01*
X2605D01*
X2591Y3059D01*
Y3006D01*
X2605Y2992D01*
X2631D01*
X2645Y3006D01*
D13*
X-1680Y2508D02*
D03*
X-1760D02*
D03*
X-2240D02*
D03*
X-2320D02*
D03*
D14*
X-1825D02*
D03*
X-2175D02*
D03*
X-1875D02*
D03*
X-2125D02*
D03*
X-1925D02*
D03*
X-2075D02*
D03*
X-1975D02*
D03*
X-2025D02*
D03*
D15*
X-1489Y2575D02*
D03*
X-2511D02*
D03*
X-1489Y2968D02*
D03*
X-2511D02*
D03*
D16*
X-700Y1240D02*
D03*
Y1080D02*
D03*
X1175Y2720D02*
D03*
Y2880D02*
D03*
X-2392Y1445D02*
D03*
Y1605D02*
D03*
X-1500Y1480D02*
D03*
Y1320D02*
D03*
X-330Y2310D02*
D03*
Y2150D02*
D03*
X-170Y1950D02*
D03*
Y2110D02*
D03*
X-2495Y1120D02*
D03*
Y1280D02*
D03*
X-550Y1690D02*
D03*
Y1530D02*
D03*
X-540Y1050D02*
D03*
Y1210D02*
D03*
X620Y810D02*
D03*
Y970D02*
D03*
X-2870Y2330D02*
D03*
Y2490D02*
D03*
X-2740Y2330D02*
D03*
Y2490D02*
D03*
X1050Y2220D02*
D03*
Y2380D02*
D03*
D17*
X2155Y2650D02*
D03*
X1995D02*
D03*
X1470D02*
D03*
X1630D02*
D03*
X-2630Y510D02*
D03*
X-2470D02*
D03*
X-1590Y1680D02*
D03*
X-1430D02*
D03*
X-1590Y1800D02*
D03*
X-1430D02*
D03*
X-890Y1190D02*
D03*
X-1050D02*
D03*
X-170Y1820D02*
D03*
X-330D02*
D03*
X-2870Y2200D02*
D03*
X-2710D02*
D03*
X-2250Y1430D02*
D03*
X-2090D02*
D03*
X-2250Y1600D02*
D03*
X-2090D02*
D03*
X-570Y-1400D02*
D03*
X-730D02*
D03*
X-2470D02*
D03*
X-2630D02*
D03*
X-580Y500D02*
D03*
X-740D02*
D03*
X3240Y1620D02*
D03*
X3080D02*
D03*
X3230Y510D02*
D03*
X3070D02*
D03*
X1330D02*
D03*
X1170D02*
D03*
X3230Y-1400D02*
D03*
X3070D02*
D03*
X1330D02*
D03*
X1170D02*
D03*
D18*
X-855Y1435D02*
D03*
X-1145D02*
D03*
Y1315D02*
D03*
X-855D02*
D03*
D19*
X-2083Y1160D02*
D03*
X-2337Y1058D02*
D03*
Y1262D02*
D03*
D20*
X465Y1530D02*
D03*
Y1450D02*
D03*
Y1370D02*
D03*
Y1290D02*
D03*
Y970D02*
D03*
Y1050D02*
D03*
Y1130D02*
D03*
Y1210D02*
D03*
X-385Y1530D02*
D03*
Y1450D02*
D03*
Y1370D02*
D03*
Y1290D02*
D03*
Y970D02*
D03*
Y1050D02*
D03*
Y1130D02*
D03*
Y1210D02*
D03*
D21*
X-240Y825D02*
D03*
X-160D02*
D03*
X-80D02*
D03*
X0D02*
D03*
X320D02*
D03*
X240D02*
D03*
X160D02*
D03*
X80D02*
D03*
Y1675D02*
D03*
X160D02*
D03*
X240D02*
D03*
X320D02*
D03*
X0D02*
D03*
X-80D02*
D03*
X-160D02*
D03*
X-240D02*
D03*
D22*
X-1995Y2165D02*
D03*
X-1900D02*
D03*
X-1805D02*
D03*
Y1935D02*
D03*
X-1900D02*
D03*
D23*
X-1995D02*
D03*
D24*
X-1711Y2625D02*
D03*
X-2289D02*
D03*
D25*
X-173Y2825D02*
D03*
X-427D02*
D03*
X1392Y2875D02*
D03*
X1646D02*
D03*
X1900D02*
D03*
X2154D02*
D03*
X2408D02*
D03*
D26*
X-1204Y2408D02*
D03*
X-3104D02*
D03*
Y508D02*
D03*
X-1204D02*
D03*
X-3104Y-1392D02*
D03*
X-1204D02*
D03*
X696D02*
D03*
X2596D02*
D03*
X696Y508D02*
D03*
X2596D02*
D03*
Y2408D02*
D03*
X696D02*
D03*
D27*
X-569Y2154D02*
D03*
X-2469D02*
D03*
Y254D02*
D03*
X-569D02*
D03*
X-2469Y-1646D02*
D03*
X-569D02*
D03*
X1331D02*
D03*
X3231D02*
D03*
X1331Y254D02*
D03*
X3231D02*
D03*
Y2154D02*
D03*
X1331D02*
D03*
D28*
X-950Y1900D02*
D03*
X-2850D02*
D03*
Y-0D02*
D03*
X-950D02*
D03*
X-2850Y-1900D02*
D03*
X-950D02*
D03*
X950D02*
D03*
X2850D02*
D03*
X950Y-0D02*
D03*
X2850D02*
D03*
Y1900D02*
D03*
X950D02*
D03*
D29*
X-40Y1290D02*
D03*
X-1760Y2350D02*
D03*
X1810Y2520D02*
D03*
X1270D02*
D03*
X-2240Y2290D02*
D03*
X-700Y930D02*
D03*
X-1050Y1070D02*
D03*
X210Y2300D02*
D03*
X200Y1370D02*
D03*
X-1280Y1680D02*
D03*
Y1800D02*
D03*
X-170Y1530D02*
D03*
X-110Y1050D02*
D03*
X-450Y1810D02*
D03*
X-570Y1370D02*
D03*
X-2000Y1700D02*
D03*
M02*
