G04*
G04 #@! TF.GenerationSoftware,Altium Limited,Altium Designer,19.1.8 (144)*
G04*
G04 Layer_Physical_Order=1*
G04 Layer_Color=255*
%FSLAX42Y42*%
%MOMM*%
G71*
G01*
G75*
%ADD26C,2.30*%
%ADD27R,2.30X2.30*%
%ADD28C,3.99*%
%ADD30R,0.60X1.35*%
%ADD31R,0.30X1.35*%
%ADD32R,2.18X2.00*%
%ADD33R,0.90X0.80*%
%ADD34R,0.80X0.90*%
%ADD35R,1.20X0.80*%
%ADD36R,0.89X0.89*%
%ADD37R,1.20X0.50*%
%ADD38R,0.50X1.20*%
G04:AMPARAMS|DCode=39|XSize=0.6mm|YSize=1.2mm|CornerRadius=0.06mm|HoleSize=0mm|Usage=FLASHONLY|Rotation=0.000|XOffset=0mm|YOffset=0mm|HoleType=Round|Shape=RoundedRectangle|*
%AMROUNDEDRECTD39*
21,1,0.60,1.08,0,0,0.0*
21,1,0.48,1.20,0,0,0.0*
1,1,0.12,0.24,-0.54*
1,1,0.12,-0.24,-0.54*
1,1,0.12,-0.24,0.54*
1,1,0.12,0.24,0.54*
%
%ADD39ROUNDEDRECTD39*%
%ADD40R,0.60X1.20*%
%ADD41C,0.40*%
%ADD42C,0.30*%
%ADD43C,0.60*%
%ADD44C,0.20*%
%ADD45C,0.18*%
%ADD46C,0.65*%
%ADD47C,1.40*%
%ADD48C,0.70*%
G36*
X2108Y2947D02*
X2093Y2936D01*
X2080Y2918D01*
X2071Y2897D01*
X2068Y2875D01*
X2071Y2853D01*
X2080Y2832D01*
X2093Y2814D01*
X2111Y2801D01*
X2119Y2798D01*
Y2710D01*
X2100D01*
Y2590D01*
X2119D01*
Y2460D01*
X1225Y1566D01*
X540D01*
Y1570D01*
X441D01*
X434Y1583D01*
X435Y1584D01*
X1160D01*
X1174Y1587D01*
X1185Y1595D01*
X1655Y2065D01*
X1663Y2076D01*
X1666Y2090D01*
Y2590D01*
X1685D01*
Y2710D01*
X1674D01*
Y2794D01*
X1689Y2801D01*
X1707Y2814D01*
X1720Y2832D01*
X1729Y2853D01*
X1732Y2875D01*
X1729Y2897D01*
X1720Y2918D01*
X1707Y2936D01*
X1692Y2947D01*
X1696Y2959D01*
X1833D01*
X1837Y2947D01*
X1832Y2943D01*
X1817Y2923D01*
X1807Y2900D01*
X1805Y2888D01*
X1900D01*
X1995D01*
X1993Y2900D01*
X1983Y2923D01*
X1968Y2943D01*
X1963Y2947D01*
X1967Y2959D01*
X2104D01*
X2108Y2947D01*
D02*
G37*
G36*
X1132Y2959D02*
X1342D01*
X1346Y2947D01*
X1331Y2936D01*
X1318Y2918D01*
X1314Y2908D01*
X1235D01*
Y2935D01*
X1115D01*
Y2908D01*
X788D01*
X776Y2906D01*
X766Y2899D01*
X216Y2350D01*
X210Y2351D01*
X190Y2347D01*
X174Y2336D01*
X163Y2320D01*
X159Y2300D01*
X163Y2280D01*
X174Y2264D01*
X190Y2253D01*
X210Y2249D01*
X230Y2253D01*
X246Y2264D01*
X257Y2280D01*
X261Y2300D01*
X260Y2306D01*
X800Y2847D01*
X1115D01*
Y2825D01*
X1235D01*
Y2847D01*
X1312D01*
X1318Y2832D01*
X1331Y2814D01*
X1349Y2801D01*
X1370Y2792D01*
X1392Y2789D01*
X1414Y2792D01*
X1435Y2801D01*
X1453Y2814D01*
X1466Y2832D01*
X1475Y2853D01*
X1478Y2875D01*
X1475Y2897D01*
X1466Y2918D01*
X1453Y2936D01*
X1438Y2947D01*
X1442Y2959D01*
X1596D01*
X1600Y2947D01*
X1585Y2936D01*
X1572Y2918D01*
X1563Y2897D01*
X1560Y2875D01*
X1563Y2853D01*
X1572Y2832D01*
X1585Y2814D01*
X1602Y2801D01*
Y2710D01*
X1575D01*
Y2590D01*
X1594D01*
Y2105D01*
X1145Y1656D01*
X410D01*
X396Y1653D01*
X385Y1645D01*
X372Y1632D01*
X360Y1637D01*
Y1750D01*
X356D01*
Y1855D01*
X685Y2184D01*
X990D01*
Y2165D01*
X1110D01*
Y2184D01*
X1201D01*
Y2024D01*
X1461D01*
Y2284D01*
X1201D01*
Y2256D01*
X1110D01*
Y2275D01*
X990D01*
Y2256D01*
X670D01*
X656Y2253D01*
X645Y2245D01*
X295Y1895D01*
X287Y1884D01*
X284Y1870D01*
Y1761D01*
X280Y1750D01*
X267Y1750D01*
X133D01*
X120Y1750D01*
X107Y1750D01*
X40Y1750D01*
X27Y1750D01*
X-40Y1750D01*
X-53Y1750D01*
X-108D01*
X-115Y1760D01*
Y1880D01*
X-134D01*
Y1895D01*
X-110D01*
Y2005D01*
X-230D01*
Y1895D01*
X-206D01*
Y1880D01*
X-225D01*
Y1760D01*
X-227D01*
Y1675D01*
Y1590D01*
X-201D01*
X-200Y1589D01*
X-191Y1587D01*
X-190Y1582D01*
X-192Y1575D01*
X-206Y1566D01*
X-217Y1550D01*
X-221Y1530D01*
X-217Y1510D01*
X-206Y1494D01*
X-206Y1494D01*
Y1175D01*
X-215Y1166D01*
X-299D01*
X-310Y1170D01*
X-310Y1183D01*
Y1237D01*
X-310Y1250D01*
X-310D01*
Y1250D01*
X-310D01*
Y1317D01*
X-310Y1330D01*
X-310D01*
Y1330D01*
X-310D01*
Y1410D01*
Y1477D01*
X-310Y1490D01*
X-310D01*
Y1490D01*
X-310D01*
Y1570D01*
X-460D01*
Y1566D01*
X-490D01*
Y1585D01*
X-610D01*
Y1576D01*
X-1260D01*
X-1278Y1572D01*
X-1292Y1562D01*
X-1332Y1522D01*
X-1342Y1508D01*
X-1346Y1490D01*
Y1351D01*
X-1440D01*
Y1375D01*
X-1560D01*
Y1265D01*
X-1440D01*
Y1289D01*
X-1346D01*
Y906D01*
X-2411D01*
X-2449Y944D01*
Y1065D01*
X-2435D01*
Y1074D01*
X-2418D01*
X-2396Y1053D01*
Y999D01*
X-2278D01*
Y1118D01*
X-2332D01*
X-2366Y1152D01*
X-2381Y1162D01*
X-2399Y1166D01*
X-2435D01*
Y1175D01*
X-2555D01*
Y1166D01*
X-2680D01*
X-2698Y1162D01*
X-2712Y1152D01*
X-3136Y728D01*
X-3146Y714D01*
X-3150Y696D01*
Y630D01*
X-3170Y621D01*
X-3197Y601D01*
X-3217Y574D01*
X-3231Y542D01*
X-3235Y508D01*
X-3231Y474D01*
X-3217Y442D01*
X-3197Y415D01*
X-3170Y395D01*
X-3138Y381D01*
X-3104Y377D01*
X-3070Y381D01*
X-3038Y395D01*
X-3011Y415D01*
X-2991Y442D01*
X-2977Y474D01*
X-2973Y508D01*
X-2977Y542D01*
X-2991Y574D01*
X-3011Y601D01*
X-3038Y621D01*
X-3058Y630D01*
Y677D01*
X-2661Y1074D01*
X-2555D01*
Y1065D01*
X-2541D01*
Y925D01*
X-2537Y907D01*
X-2527Y893D01*
X-2462Y828D01*
X-2448Y818D01*
X-2430Y814D01*
X-1030D01*
X-1012Y818D01*
X-998Y828D01*
X-858Y968D01*
X-848Y982D01*
X-844Y1000D01*
Y1059D01*
X-835D01*
X-821Y1062D01*
X-810Y1070D01*
X-782Y1097D01*
X-771Y1093D01*
X-700D01*
X-630D01*
Y1118D01*
X-621Y1121D01*
X-610Y1112D01*
Y1063D01*
X-540D01*
Y1050D01*
X-527D01*
Y985D01*
X-474D01*
X-468Y973D01*
X-705Y736D01*
X-2380D01*
X-2394Y733D01*
X-2405Y725D01*
X-2495Y635D01*
X-2503Y624D01*
X-2506Y610D01*
Y570D01*
X-2525D01*
Y450D01*
X-2506D01*
Y384D01*
X-2599D01*
Y124D01*
X-2339D01*
Y384D01*
X-2434D01*
Y450D01*
X-2415D01*
Y570D01*
X-2434D01*
Y595D01*
X-2365Y664D01*
X-690D01*
X-676Y667D01*
X-665Y675D01*
X-410Y930D01*
X-310D01*
Y997D01*
X-310Y1010D01*
X-299Y1014D01*
X-146D01*
X-146Y1014D01*
X-130Y1003D01*
X-110Y999D01*
X-90Y1003D01*
X-74Y1014D01*
X-63Y1030D01*
X-59Y1050D01*
X-63Y1070D01*
X-74Y1086D01*
X-90Y1097D01*
X-110Y1101D01*
X-130Y1097D01*
X-146Y1086D01*
X-146Y1086D01*
X-182D01*
X-184Y1089D01*
X-184Y1098D01*
X-175Y1105D01*
X-145Y1135D01*
X-137Y1146D01*
X-134Y1160D01*
Y1494D01*
X-134Y1494D01*
X-123Y1510D01*
X-119Y1530D01*
X-123Y1550D01*
X-134Y1566D01*
X-150Y1577D01*
X-170Y1581D01*
X-179Y1579D01*
X-182Y1582D01*
X-189Y1587D01*
X-188Y1589D01*
X-182Y1600D01*
X-53D01*
X-40Y1600D01*
X-27Y1600D01*
X40Y1600D01*
X53Y1600D01*
X120Y1600D01*
X133Y1600D01*
X267D01*
X280Y1600D01*
X293Y1600D01*
X323D01*
X328Y1588D01*
X311Y1572D01*
X304Y1560D01*
X301Y1547D01*
Y1473D01*
X304Y1460D01*
X311Y1448D01*
X335Y1425D01*
X344Y1418D01*
X344Y1409D01*
X342Y1406D01*
X236D01*
X236Y1406D01*
X220Y1417D01*
X200Y1421D01*
X180Y1417D01*
X164Y1406D01*
X153Y1390D01*
X149Y1370D01*
X153Y1350D01*
X161Y1338D01*
X155Y1326D01*
X-4D01*
X-4Y1326D01*
X-20Y1337D01*
X-40Y1341D01*
X-60Y1337D01*
X-76Y1326D01*
X-87Y1310D01*
X-91Y1290D01*
X-87Y1270D01*
X-76Y1254D01*
X-60Y1243D01*
X-40Y1239D01*
X-20Y1243D01*
X-4Y1254D01*
X-4Y1254D01*
X379D01*
X390Y1250D01*
X390Y1237D01*
X390Y1170D01*
X390Y1157D01*
Y1090D01*
Y1023D01*
X390Y1010D01*
X390D01*
Y1010D01*
X390D01*
Y930D01*
X540D01*
Y934D01*
X560D01*
Y915D01*
X680D01*
Y924D01*
X761D01*
X804Y881D01*
Y681D01*
X750Y626D01*
X730Y635D01*
X696Y639D01*
X662Y635D01*
X630Y621D01*
X603Y601D01*
X583Y574D01*
X569Y542D01*
X565Y508D01*
X569Y474D01*
X583Y442D01*
X603Y415D01*
X630Y395D01*
X662Y381D01*
X696Y377D01*
X730Y381D01*
X762Y395D01*
X789Y415D01*
X809Y442D01*
X823Y474D01*
X827Y508D01*
X823Y542D01*
X814Y562D01*
X882Y630D01*
X892Y644D01*
X896Y662D01*
Y900D01*
X892Y918D01*
X882Y932D01*
X813Y1002D01*
X814Y1005D01*
X818Y1014D01*
X1105D01*
X1295Y824D01*
Y570D01*
X1275D01*
Y450D01*
X1295D01*
Y384D01*
X1201D01*
Y124D01*
X1461D01*
Y384D01*
X1367D01*
Y450D01*
X1385D01*
Y570D01*
X1367D01*
Y839D01*
X1364Y853D01*
X1356Y864D01*
X1145Y1075D01*
X1136Y1082D01*
X1136Y1091D01*
X1138Y1094D01*
X2945D01*
X3195Y844D01*
Y570D01*
X3175D01*
Y450D01*
X3195D01*
Y384D01*
X3101D01*
Y124D01*
X3361D01*
Y384D01*
X3267D01*
Y450D01*
X3285D01*
Y570D01*
X3267D01*
Y859D01*
X3264Y873D01*
X3256Y884D01*
X2985Y1155D01*
X2974Y1163D01*
X2971Y1164D01*
Y1176D01*
X2974Y1177D01*
X2985Y1185D01*
X3265Y1465D01*
X3273Y1476D01*
X3276Y1490D01*
Y1560D01*
X3295D01*
Y1680D01*
X3276D01*
Y2024D01*
X3361D01*
Y2284D01*
X3101D01*
Y2024D01*
X3204D01*
Y1680D01*
X3185D01*
Y1560D01*
X3204D01*
Y1505D01*
X2945Y1246D01*
X551D01*
X540Y1250D01*
X540Y1263D01*
Y1317D01*
X540Y1330D01*
X540D01*
Y1330D01*
X540D01*
Y1410D01*
Y1490D01*
X551Y1494D01*
X1240D01*
X1254Y1497D01*
X1265Y1505D01*
X2180Y2420D01*
X2188Y2431D01*
X2191Y2445D01*
Y2590D01*
X2210D01*
Y2710D01*
X2190D01*
Y2798D01*
X2197Y2801D01*
X2215Y2814D01*
X2228Y2832D01*
X2237Y2853D01*
X2240Y2875D01*
X2237Y2897D01*
X2228Y2918D01*
X2215Y2936D01*
X2200Y2947D01*
X2204Y2959D01*
X2358D01*
X2362Y2947D01*
X2347Y2936D01*
X2334Y2918D01*
X2325Y2897D01*
X2322Y2875D01*
X2325Y2853D01*
X2334Y2832D01*
X2347Y2814D01*
X2365Y2801D01*
X2386Y2792D01*
X2408Y2789D01*
X2430Y2792D01*
X2451Y2801D01*
X2469Y2814D01*
X2482Y2832D01*
X2491Y2853D01*
X2494Y2875D01*
X2491Y2897D01*
X2482Y2918D01*
X2469Y2936D01*
X2454Y2947D01*
X2458Y2959D01*
X2678D01*
Y3032D01*
X2690Y3038D01*
X3649Y2079D01*
Y-2004D01*
X2954Y-2699D01*
X-2954D01*
X-3649Y-2004D01*
Y2104D01*
X-2704Y3049D01*
X-2635D01*
Y2853D01*
X-2387D01*
Y3049D01*
X-1613D01*
Y2853D01*
X-1365D01*
Y3049D01*
X-805D01*
Y2906D01*
X-482D01*
X-478Y2893D01*
X-488Y2886D01*
X-501Y2868D01*
X-510Y2847D01*
X-513Y2825D01*
X-510Y2803D01*
X-501Y2782D01*
X-488Y2764D01*
X-470Y2751D01*
X-449Y2742D01*
X-427Y2739D01*
X-405Y2742D01*
X-384Y2751D01*
X-366Y2764D01*
X-353Y2782D01*
X-344Y2803D01*
X-341Y2825D01*
X-344Y2847D01*
X-353Y2868D01*
X-366Y2886D01*
X-376Y2893D01*
X-372Y2906D01*
X-228D01*
X-224Y2893D01*
X-234Y2886D01*
X-247Y2868D01*
X-256Y2847D01*
X-259Y2825D01*
X-256Y2803D01*
X-247Y2782D01*
X-234Y2764D01*
X-216Y2751D01*
X-207Y2747D01*
Y2165D01*
X-230D01*
Y2055D01*
X-110D01*
Y2165D01*
X-136D01*
Y2748D01*
X-130Y2751D01*
X-112Y2764D01*
X-99Y2782D01*
X-90Y2803D01*
X-87Y2825D01*
X-90Y2847D01*
X-99Y2868D01*
X-112Y2886D01*
X-122Y2893D01*
X-118Y2906D01*
X171D01*
Y3049D01*
X1132D01*
Y2959D01*
D02*
G37*
G36*
X-930Y1380D02*
X-930D01*
Y1370D01*
X-930D01*
Y1260D01*
X-937Y1250D01*
X-945D01*
Y1130D01*
X-936D01*
Y1019D01*
X-1049Y906D01*
X-1254D01*
Y1289D01*
X-1220D01*
Y1260D01*
X-1115D01*
Y1203D01*
X-1050D01*
Y1177D01*
X-1115D01*
Y1120D01*
X-1105D01*
X-1098Y1107D01*
X-1107Y1094D01*
X-1109Y1083D01*
X-991D01*
X-993Y1094D01*
X-1002Y1107D01*
X-995Y1120D01*
X-985D01*
Y1162D01*
X-978Y1172D01*
X-974Y1190D01*
Y1390D01*
X-978Y1408D01*
X-988Y1422D01*
X-1028Y1462D01*
X-1031Y1465D01*
X-1033Y1482D01*
X-1032Y1484D01*
X-930D01*
Y1380D01*
D02*
G37*
%LPC*%
G36*
X1995Y2862D02*
X1913D01*
Y2780D01*
X1925Y2782D01*
X1948Y2792D01*
X1968Y2807D01*
X1983Y2827D01*
X1993Y2850D01*
X1995Y2862D01*
D02*
G37*
G36*
X1887D02*
X1805D01*
X1807Y2850D01*
X1817Y2827D01*
X1832Y2807D01*
X1852Y2792D01*
X1875Y2782D01*
X1887Y2780D01*
Y2862D01*
D02*
G37*
G36*
X2060Y2720D02*
X2008D01*
Y2663D01*
X2060D01*
Y2720D01*
D02*
G37*
G36*
X1982D02*
X1930D01*
Y2663D01*
X1982D01*
Y2720D01*
D02*
G37*
G36*
X2060Y2637D02*
X2008D01*
Y2580D01*
X2060D01*
Y2637D01*
D02*
G37*
G36*
X1982D02*
X1930D01*
Y2580D01*
X1982D01*
Y2637D01*
D02*
G37*
G36*
X1823Y2579D02*
Y2533D01*
X1869D01*
X1867Y2544D01*
X1854Y2564D01*
X1834Y2577D01*
X1823Y2579D01*
D02*
G37*
G36*
X1797D02*
X1786Y2577D01*
X1766Y2564D01*
X1753Y2544D01*
X1751Y2533D01*
X1797D01*
Y2579D01*
D02*
G37*
G36*
X1869Y2507D02*
X1823D01*
Y2461D01*
X1834Y2463D01*
X1854Y2476D01*
X1867Y2496D01*
X1869Y2507D01*
D02*
G37*
G36*
X1797D02*
X1751D01*
X1753Y2496D01*
X1766Y2476D01*
X1786Y2463D01*
X1797Y2461D01*
Y2507D01*
D02*
G37*
G36*
X1235Y2775D02*
X1115D01*
Y2715D01*
X856Y2457D01*
X816D01*
X809Y2474D01*
X789Y2501D01*
X762Y2521D01*
X730Y2535D01*
X696Y2539D01*
X662Y2535D01*
X630Y2521D01*
X603Y2501D01*
X583Y2474D01*
X569Y2442D01*
X565Y2408D01*
X569Y2374D01*
X583Y2342D01*
X603Y2315D01*
X630Y2295D01*
X662Y2281D01*
X696Y2277D01*
X730Y2281D01*
X762Y2295D01*
X789Y2315D01*
X809Y2342D01*
X823Y2374D01*
X824Y2385D01*
X871D01*
X885Y2388D01*
X896Y2396D01*
X1165Y2665D01*
X1235D01*
Y2684D01*
X1285D01*
X1345Y2625D01*
X1356Y2617D01*
X1370Y2614D01*
X1415D01*
Y2590D01*
X1525D01*
Y2710D01*
X1415D01*
Y2686D01*
X1385D01*
X1325Y2745D01*
X1314Y2753D01*
X1300Y2756D01*
X1235D01*
Y2775D01*
D02*
G37*
G36*
X-2048Y2833D02*
X-2048Y2833D01*
X-2742D01*
X-2754Y2831D01*
X-2764Y2824D01*
X-2764Y2824D01*
X-2892Y2697D01*
X-2898Y2687D01*
X-2901Y2675D01*
X-2901Y2675D01*
Y2545D01*
X-2930D01*
Y2435D01*
X-2810D01*
Y2435D01*
X-2800D01*
Y2435D01*
X-2680D01*
Y2545D01*
X-2709D01*
Y2677D01*
X-2677Y2709D01*
X-2248D01*
X-2206Y2667D01*
Y2590D01*
X-2240D01*
X-2247Y2603D01*
X-2244Y2606D01*
X-2241Y2625D01*
X-2244Y2644D01*
X-2255Y2659D01*
X-2270Y2670D01*
X-2289Y2673D01*
X-2308Y2670D01*
X-2323Y2659D01*
X-2334Y2644D01*
X-2337Y2625D01*
X-2335Y2613D01*
X-2344Y2600D01*
X-2374D01*
X-2375Y2600D01*
X-2387Y2603D01*
Y2690D01*
X-2635D01*
Y2460D01*
X-2388D01*
X-2387Y2460D01*
X-2375Y2457D01*
Y2415D01*
X-2333D01*
Y2508D01*
X-2307D01*
Y2415D01*
X-2286D01*
Y2311D01*
X-2287Y2310D01*
X-2291Y2290D01*
X-2287Y2270D01*
X-2286Y2269D01*
Y1660D01*
X-2305D01*
Y1648D01*
X-2333D01*
Y1660D01*
X-2452D01*
Y1550D01*
X-2333D01*
Y1557D01*
X-2305D01*
Y1540D01*
X-2195D01*
Y1606D01*
X-2194Y1610D01*
Y2269D01*
X-2193Y2270D01*
X-2189Y2290D01*
X-2193Y2310D01*
X-2194Y2311D01*
Y2425D01*
X-2106D01*
Y2275D01*
X-2106Y2275D01*
X-2103Y2263D01*
X-2097Y2253D01*
X-2040Y2197D01*
Y2111D01*
X-2045Y2106D01*
X-2057D01*
X-2069Y2103D01*
X-2079Y2097D01*
X-2079Y2097D01*
X-2112Y2064D01*
X-2118Y2054D01*
X-2121Y2042D01*
X-2121Y2042D01*
Y1700D01*
Y1660D01*
X-2145D01*
Y1540D01*
X-2137D01*
Y1490D01*
X-2145D01*
Y1370D01*
X-2137D01*
Y1219D01*
X-2142D01*
Y1101D01*
X-2024D01*
Y1219D01*
X-2046D01*
Y1370D01*
X-2035D01*
Y1490D01*
X-2046D01*
Y1540D01*
X-2035D01*
Y1648D01*
X-2022Y1655D01*
X-2020Y1653D01*
X-2000Y1649D01*
X-1980Y1653D01*
X-1964Y1664D01*
X-1953Y1680D01*
X-1949Y1700D01*
X-1953Y1720D01*
X-1963Y1734D01*
X-1953Y1743D01*
X-1865Y1655D01*
X-1854Y1647D01*
X-1840Y1644D01*
X-1645D01*
Y1620D01*
X-1543D01*
X-1533Y1616D01*
X-1531Y1609D01*
Y1535D01*
X-1560D01*
Y1425D01*
X-1440D01*
Y1535D01*
X-1459D01*
Y1600D01*
X-1440Y1620D01*
X-1375D01*
Y1644D01*
X-1316D01*
X-1316Y1644D01*
X-1300Y1633D01*
X-1280Y1629D01*
X-1260Y1633D01*
X-1244Y1644D01*
X-1233Y1660D01*
X-1229Y1680D01*
X-1233Y1700D01*
X-1244Y1716D01*
X-1260Y1727D01*
X-1280Y1731D01*
X-1300Y1727D01*
X-1316Y1716D01*
X-1316Y1716D01*
X-1366D01*
X-1375Y1725D01*
X-1375Y1740D01*
X-1375Y1755D01*
X-1366Y1764D01*
X-1316D01*
X-1316Y1764D01*
X-1300Y1753D01*
X-1280Y1749D01*
X-1260Y1753D01*
X-1244Y1764D01*
X-1233Y1780D01*
X-1229Y1800D01*
X-1233Y1820D01*
X-1244Y1836D01*
X-1260Y1847D01*
X-1280Y1851D01*
X-1300Y1847D01*
X-1316Y1836D01*
X-1316Y1836D01*
X-1375D01*
Y1860D01*
X-1485D01*
Y1753D01*
X-1485Y1740D01*
X-1485Y1727D01*
Y1675D01*
X-1520Y1640D01*
X-1522Y1637D01*
X-1535Y1641D01*
Y1727D01*
X-1535Y1740D01*
X-1535D01*
Y1740D01*
X-1535D01*
Y1860D01*
X-1645D01*
Y1836D01*
X-1745D01*
X-1762Y1853D01*
X-1766Y1866D01*
X-1761Y1873D01*
X-1760Y1881D01*
Y1989D01*
X-1761Y1997D01*
X-1766Y2004D01*
X-1773Y2009D01*
X-1781Y2010D01*
X-1829D01*
X-1837Y2009D01*
X-1853Y2012D01*
X-1853Y2012D01*
X-1864Y2019D01*
X-1876Y2021D01*
X-1887D01*
Y1935D01*
Y1849D01*
X-1876D01*
X-1864Y1851D01*
X-1853Y1858D01*
X-1841Y1854D01*
Y1845D01*
X-1838Y1831D01*
X-1830Y1820D01*
X-1785Y1775D01*
X-1774Y1767D01*
X-1760Y1764D01*
X-1654D01*
X-1645Y1755D01*
X-1645Y1740D01*
X-1645D01*
Y1740D01*
X-1645D01*
Y1716D01*
X-1825D01*
X-1950Y1840D01*
X-1947Y1851D01*
X-1940Y1854D01*
X-1940Y1854D01*
X-1936Y1851D01*
X-1924Y1849D01*
X-1913D01*
Y1935D01*
Y2021D01*
X-1924D01*
X-1936Y2019D01*
X-1940Y2016D01*
X-1950Y2010D01*
X-2040D01*
Y1860D01*
X-2031D01*
Y1835D01*
X-2028Y1821D01*
X-2020Y1810D01*
X-1957Y1747D01*
X-1966Y1737D01*
X-1980Y1747D01*
X-2000Y1751D01*
X-2020Y1747D01*
X-2036Y1736D01*
X-2040Y1731D01*
X-2059D01*
Y2030D01*
X-2045Y2044D01*
X-1918D01*
X-1918Y2044D01*
X-1906Y2047D01*
X-1896Y2053D01*
X-1878Y2071D01*
X-1878Y2071D01*
X-1872Y2081D01*
X-1870Y2091D01*
X-1868Y2091D01*
X-1861Y2096D01*
X-1860Y2098D01*
X-1845D01*
X-1844Y2096D01*
X-1837Y2091D01*
X-1829Y2090D01*
X-1781D01*
X-1773Y2091D01*
X-1766Y2096D01*
X-1761Y2103D01*
X-1760Y2111D01*
Y2219D01*
X-1761Y2227D01*
X-1766Y2234D01*
X-1773Y2239D01*
X-1774Y2239D01*
Y2273D01*
X-1777Y2284D01*
X-1781Y2290D01*
X-1774Y2302D01*
X-1760Y2299D01*
X-1740Y2303D01*
X-1724Y2314D01*
X-1713Y2330D01*
X-1709Y2350D01*
X-1713Y2370D01*
X-1714Y2371D01*
Y2415D01*
X-1693D01*
Y2508D01*
X-1667D01*
Y2415D01*
X-1625D01*
Y2457D01*
X-1613Y2460D01*
X-1612Y2460D01*
X-1365D01*
Y2690D01*
X-1613D01*
Y2603D01*
X-1625Y2600D01*
X-1626Y2600D01*
X-1656D01*
X-1665Y2613D01*
X-1663Y2625D01*
X-1666Y2644D01*
X-1677Y2659D01*
X-1692Y2670D01*
X-1711Y2673D01*
X-1730Y2670D01*
X-1745Y2659D01*
X-1756Y2644D01*
X-1759Y2625D01*
X-1756Y2606D01*
X-1753Y2603D01*
X-1760Y2590D01*
X-1844D01*
Y2630D01*
X-1844Y2630D01*
X-1847Y2642D01*
X-1853Y2652D01*
X-1853Y2652D01*
X-2026Y2824D01*
X-2036Y2831D01*
X-2048Y2833D01*
D02*
G37*
G36*
X1283Y2579D02*
Y2533D01*
X1329D01*
X1327Y2544D01*
X1314Y2564D01*
X1294Y2577D01*
X1283Y2579D01*
D02*
G37*
G36*
X1329Y2507D02*
X1283D01*
Y2461D01*
X1294Y2463D01*
X1314Y2476D01*
X1327Y2496D01*
X1329Y2507D01*
D02*
G37*
G36*
X1257Y2579D02*
X1246Y2577D01*
X1226Y2564D01*
X1221Y2556D01*
X1195D01*
X1181Y2553D01*
X1170Y2545D01*
X1070Y2445D01*
X1063D01*
Y2393D01*
X1120D01*
Y2395D01*
X1209Y2484D01*
X1222Y2483D01*
X1226Y2476D01*
X1246Y2463D01*
X1257Y2461D01*
Y2520D01*
Y2579D01*
D02*
G37*
G36*
X1037Y2445D02*
X980D01*
Y2393D01*
X1037D01*
Y2445D01*
D02*
G37*
G36*
X-2670Y2395D02*
X-2727D01*
Y2343D01*
X-2670D01*
Y2395D01*
D02*
G37*
G36*
X-2883D02*
X-2940D01*
Y2343D01*
X-2883D01*
Y2395D01*
D02*
G37*
G36*
X-260Y2375D02*
X-317D01*
Y2323D01*
X-260D01*
Y2375D01*
D02*
G37*
G36*
X-343D02*
X-400D01*
Y2323D01*
X-343D01*
Y2375D01*
D02*
G37*
G36*
X1120Y2367D02*
X1063D01*
Y2315D01*
X1120D01*
Y2367D01*
D02*
G37*
G36*
X1037D02*
X980D01*
Y2315D01*
X1037D01*
Y2367D01*
D02*
G37*
G36*
X2596Y2539D02*
X2562Y2535D01*
X2530Y2521D01*
X2503Y2501D01*
X2483Y2474D01*
X2469Y2442D01*
X2465Y2408D01*
X2469Y2374D01*
X2483Y2342D01*
X2503Y2315D01*
X2530Y2295D01*
X2562Y2281D01*
X2596Y2277D01*
X2630Y2281D01*
X2662Y2295D01*
X2689Y2315D01*
X2709Y2342D01*
X2723Y2374D01*
X2727Y2408D01*
X2723Y2442D01*
X2709Y2474D01*
X2689Y2501D01*
X2662Y2521D01*
X2630Y2535D01*
X2596Y2539D01*
D02*
G37*
G36*
X-1204D02*
X-1238Y2535D01*
X-1270Y2521D01*
X-1297Y2501D01*
X-1317Y2474D01*
X-1331Y2442D01*
X-1335Y2408D01*
X-1331Y2374D01*
X-1317Y2342D01*
X-1297Y2315D01*
X-1270Y2295D01*
X-1238Y2281D01*
X-1204Y2277D01*
X-1170Y2281D01*
X-1138Y2295D01*
X-1111Y2315D01*
X-1091Y2342D01*
X-1077Y2374D01*
X-1073Y2408D01*
X-1077Y2442D01*
X-1091Y2474D01*
X-1111Y2501D01*
X-1138Y2521D01*
X-1170Y2535D01*
X-1204Y2539D01*
D02*
G37*
G36*
X-3104D02*
X-3138Y2535D01*
X-3170Y2521D01*
X-3197Y2501D01*
X-3217Y2474D01*
X-3231Y2442D01*
X-3235Y2408D01*
X-3231Y2374D01*
X-3217Y2342D01*
X-3197Y2315D01*
X-3170Y2295D01*
X-3138Y2281D01*
X-3104Y2277D01*
X-3070Y2281D01*
X-3038Y2295D01*
X-3011Y2315D01*
X-2991Y2342D01*
X-2977Y2374D01*
X-2973Y2408D01*
X-2977Y2442D01*
X-2991Y2474D01*
X-3011Y2501D01*
X-3038Y2521D01*
X-3070Y2535D01*
X-3104Y2539D01*
D02*
G37*
G36*
X-260Y2297D02*
X-317D01*
Y2245D01*
X-260D01*
Y2297D01*
D02*
G37*
G36*
X-343D02*
X-400D01*
Y2245D01*
X-343D01*
Y2297D01*
D02*
G37*
G36*
X-2805Y2187D02*
X-2857D01*
Y2130D01*
X-2805D01*
Y2187D01*
D02*
G37*
G36*
X-2883D02*
X-2935D01*
Y2130D01*
X-2883D01*
Y2187D01*
D02*
G37*
G36*
X-2753Y2395D02*
X-2857D01*
Y2330D01*
X-2870D01*
Y2317D01*
X-2940D01*
Y2265D01*
X-2935D01*
Y2213D01*
X-2870D01*
X-2805D01*
Y2265D01*
X-2776D01*
X-2765Y2260D01*
X-2765Y2252D01*
Y2140D01*
X-2655D01*
Y2164D01*
X-2599D01*
Y2024D01*
X-2339D01*
Y2284D01*
X-2599D01*
Y2236D01*
X-2655D01*
Y2260D01*
X-2659D01*
X-2670Y2265D01*
X-2670Y2273D01*
Y2317D01*
X-2740D01*
Y2330D01*
X-2753D01*
Y2395D01*
D02*
G37*
G36*
X-265Y1890D02*
X-317D01*
Y1833D01*
X-265D01*
Y1890D01*
D02*
G37*
G36*
X-563Y1755D02*
X-620D01*
Y1703D01*
X-563D01*
Y1755D01*
D02*
G37*
G36*
X2850Y2115D02*
X2808Y2111D01*
X2768Y2099D01*
X2730Y2079D01*
X2698Y2052D01*
X2671Y2020D01*
X2651Y1982D01*
X2639Y1942D01*
X2635Y1900D01*
X2639Y1858D01*
X2651Y1818D01*
X2671Y1780D01*
X2698Y1748D01*
X2730Y1721D01*
X2768Y1701D01*
X2808Y1689D01*
X2850Y1685D01*
X2892Y1689D01*
X2932Y1701D01*
X2970Y1721D01*
X3002Y1748D01*
X3029Y1780D01*
X3049Y1818D01*
X3061Y1858D01*
X3065Y1900D01*
X3061Y1942D01*
X3049Y1982D01*
X3029Y2020D01*
X3002Y2052D01*
X2970Y2079D01*
X2932Y2099D01*
X2892Y2111D01*
X2850Y2115D01*
D02*
G37*
G36*
X950D02*
X908Y2111D01*
X868Y2099D01*
X830Y2079D01*
X798Y2052D01*
X771Y2020D01*
X751Y1982D01*
X739Y1942D01*
X735Y1900D01*
X739Y1858D01*
X751Y1818D01*
X771Y1780D01*
X798Y1748D01*
X830Y1721D01*
X868Y1701D01*
X908Y1689D01*
X950Y1685D01*
X992Y1689D01*
X1032Y1701D01*
X1070Y1721D01*
X1102Y1748D01*
X1129Y1780D01*
X1149Y1818D01*
X1161Y1858D01*
X1165Y1900D01*
X1161Y1942D01*
X1149Y1982D01*
X1129Y2020D01*
X1102Y2052D01*
X1070Y2079D01*
X1032Y2099D01*
X992Y2111D01*
X950Y2115D01*
D02*
G37*
G36*
X-950D02*
X-992Y2111D01*
X-1032Y2099D01*
X-1070Y2079D01*
X-1102Y2052D01*
X-1129Y2020D01*
X-1149Y1982D01*
X-1161Y1942D01*
X-1165Y1900D01*
X-1161Y1858D01*
X-1149Y1818D01*
X-1129Y1780D01*
X-1102Y1748D01*
X-1070Y1721D01*
X-1032Y1701D01*
X-992Y1689D01*
X-950Y1685D01*
X-908Y1689D01*
X-868Y1701D01*
X-830Y1721D01*
X-798Y1748D01*
X-771Y1780D01*
X-751Y1818D01*
X-739Y1858D01*
X-735Y1900D01*
X-739Y1942D01*
X-751Y1982D01*
X-771Y2020D01*
X-798Y2052D01*
X-830Y2079D01*
X-868Y2099D01*
X-908Y2111D01*
X-950Y2115D01*
D02*
G37*
G36*
X-2850D02*
X-2892Y2111D01*
X-2932Y2099D01*
X-2970Y2079D01*
X-3002Y2052D01*
X-3029Y2020D01*
X-3049Y1982D01*
X-3061Y1942D01*
X-3065Y1900D01*
X-3061Y1858D01*
X-3049Y1818D01*
X-3029Y1780D01*
X-3002Y1748D01*
X-2970Y1721D01*
X-2932Y1701D01*
X-2892Y1689D01*
X-2850Y1685D01*
X-2808Y1689D01*
X-2768Y1701D01*
X-2730Y1721D01*
X-2698Y1748D01*
X-2671Y1780D01*
X-2651Y1818D01*
X-2639Y1858D01*
X-2635Y1900D01*
X-2639Y1942D01*
X-2651Y1982D01*
X-2671Y2020D01*
X-2698Y2052D01*
X-2730Y2079D01*
X-2768Y2099D01*
X-2808Y2111D01*
X-2850Y2115D01*
D02*
G37*
G36*
X3145Y1690D02*
X3093D01*
Y1633D01*
X3145D01*
Y1690D01*
D02*
G37*
G36*
X3067D02*
X3015D01*
Y1633D01*
X3067D01*
Y1690D01*
D02*
G37*
G36*
X-563Y1677D02*
X-620D01*
Y1625D01*
X-563D01*
Y1677D01*
D02*
G37*
G36*
X-439Y2284D02*
X-699D01*
Y2024D01*
X-439D01*
Y2114D01*
X-390D01*
Y2095D01*
X-366D01*
Y2035D01*
X-475Y1925D01*
X-483Y1914D01*
X-486Y1900D01*
Y1846D01*
X-486Y1846D01*
X-497Y1830D01*
X-501Y1810D01*
X-497Y1790D01*
X-486Y1774D01*
X-481Y1771D01*
X-481Y1768D01*
X-491Y1755D01*
X-537D01*
Y1690D01*
Y1625D01*
X-480D01*
Y1654D01*
X-290D01*
Y1590D01*
X-253D01*
Y1675D01*
Y1760D01*
X-265D01*
Y1807D01*
X-330D01*
Y1820D01*
X-343D01*
Y1890D01*
X-391D01*
X-397Y1902D01*
X-305Y1995D01*
X-297Y2006D01*
X-294Y2020D01*
Y2095D01*
X-270D01*
Y2205D01*
X-390D01*
Y2186D01*
X-439D01*
Y2284D01*
D02*
G37*
G36*
X3145Y1607D02*
X3093D01*
Y1550D01*
X3145D01*
Y1607D01*
D02*
G37*
G36*
X3067D02*
X3015D01*
Y1550D01*
X3067D01*
Y1607D01*
D02*
G37*
G36*
X-2405Y1510D02*
X-2463D01*
Y1458D01*
X-2405D01*
Y1510D01*
D02*
G37*
G36*
X-2237Y1500D02*
Y1443D01*
X-2185D01*
Y1500D01*
X-2237D01*
D02*
G37*
G36*
X-2405Y1432D02*
X-2463D01*
Y1380D01*
X-2405D01*
Y1432D01*
D02*
G37*
G36*
X-2185Y1417D02*
X-2237D01*
Y1360D01*
X-2185D01*
Y1417D01*
D02*
G37*
G36*
X-2322Y1510D02*
X-2380D01*
Y1445D01*
Y1380D01*
X-2328D01*
X-2322Y1380D01*
X-2315Y1370D01*
Y1360D01*
X-2263D01*
Y1430D01*
Y1500D01*
X-2309D01*
X-2315Y1500D01*
X-2322Y1510D01*
Y1510D01*
D02*
G37*
G36*
X-2425Y1345D02*
X-2482D01*
Y1293D01*
X-2425D01*
Y1345D01*
D02*
G37*
G36*
X-2508D02*
X-2565D01*
Y1293D01*
X-2508D01*
Y1345D01*
D02*
G37*
G36*
X-2267Y1331D02*
X-2324D01*
Y1274D01*
X-2267D01*
Y1331D01*
D02*
G37*
G36*
X-2350D02*
X-2407D01*
Y1274D01*
X-2350D01*
Y1331D01*
D02*
G37*
G36*
X-2425Y1267D02*
X-2482D01*
Y1215D01*
X-2425D01*
Y1267D01*
D02*
G37*
G36*
X-2508D02*
X-2565D01*
Y1215D01*
X-2508D01*
Y1267D01*
D02*
G37*
G36*
X-2267Y1249D02*
X-2324D01*
Y1192D01*
X-2267D01*
Y1249D01*
D02*
G37*
G36*
X-2350D02*
X-2407D01*
Y1192D01*
X-2350D01*
Y1249D01*
D02*
G37*
G36*
X-553Y1037D02*
X-610D01*
Y985D01*
X-553D01*
Y1037D01*
D02*
G37*
G36*
X-630Y1067D02*
X-700D01*
X-770D01*
Y1015D01*
X-736D01*
Y979D01*
X-744Y974D01*
X-757Y954D01*
X-759Y943D01*
X-641D01*
X-643Y954D01*
X-656Y974D01*
X-664Y979D01*
Y1015D01*
X-630D01*
Y1067D01*
D02*
G37*
G36*
X307Y910D02*
X270D01*
Y900D01*
X133D01*
X120Y900D01*
X107Y900D01*
X40Y900D01*
X27Y900D01*
X-40Y900D01*
X-53Y900D01*
X-187D01*
X-200Y900D01*
X-213Y900D01*
X-280D01*
Y861D01*
X-435D01*
X-449Y858D01*
X-460Y850D01*
X-594Y716D01*
X-602Y705D01*
X-605Y691D01*
Y560D01*
X-635D01*
Y440D01*
X-605D01*
Y384D01*
X-699D01*
Y124D01*
X-439D01*
Y384D01*
X-533D01*
Y440D01*
X-525D01*
Y560D01*
X-533D01*
Y676D01*
X-420Y789D01*
X-280D01*
Y750D01*
X-200Y750D01*
X-196Y739D01*
Y-485D01*
X-745Y-1034D01*
X-2210D01*
X-2224Y-1037D01*
X-2235Y-1045D01*
X-2494Y-1304D01*
X-2502Y-1315D01*
X-2505Y-1329D01*
Y-1340D01*
X-2525D01*
Y-1460D01*
X-2505D01*
Y-1516D01*
X-2599D01*
Y-1776D01*
X-2339D01*
Y-1516D01*
X-2433D01*
Y-1460D01*
X-2415D01*
Y-1340D01*
X-2415D01*
X-2419Y-1330D01*
X-2195Y-1106D01*
X-730D01*
X-716Y-1103D01*
X-705Y-1095D01*
X-615Y-1005D01*
X-603Y-1012D01*
X-605Y-1019D01*
Y-1340D01*
X-625D01*
Y-1460D01*
X-605D01*
Y-1516D01*
X-699D01*
Y-1776D01*
X-439D01*
Y-1516D01*
X-533D01*
Y-1460D01*
X-515D01*
Y-1340D01*
X-533D01*
Y-1034D01*
X-55Y-555D01*
X-47Y-544D01*
X-46Y-541D01*
X-34D01*
X-33Y-544D01*
X-25Y-555D01*
X625Y-1205D01*
X636Y-1213D01*
X650Y-1216D01*
X1175D01*
X1287Y-1327D01*
X1282Y-1340D01*
X1275D01*
Y-1460D01*
X1295D01*
Y-1516D01*
X1201D01*
Y-1776D01*
X1461D01*
Y-1516D01*
X1367D01*
Y-1460D01*
X1385D01*
Y-1340D01*
X1367D01*
Y-1321D01*
X1364Y-1307D01*
X1356Y-1296D01*
X1215Y-1155D01*
X1204Y-1147D01*
X1190Y-1144D01*
X665D01*
X556Y-1036D01*
X563Y-1024D01*
X570Y-1026D01*
X3145D01*
X3195Y-1076D01*
Y-1340D01*
X3175D01*
Y-1460D01*
X3195D01*
Y-1516D01*
X3101D01*
Y-1776D01*
X3361D01*
Y-1516D01*
X3267D01*
Y-1460D01*
X3285D01*
Y-1340D01*
X3267D01*
Y-1061D01*
X3264Y-1047D01*
X3256Y-1036D01*
X3185Y-965D01*
X3174Y-957D01*
X3160Y-954D01*
X585D01*
X116Y-485D01*
Y739D01*
X120Y750D01*
X133Y750D01*
X270D01*
Y740D01*
X307D01*
Y825D01*
Y910D01*
D02*
G37*
G36*
X-641Y917D02*
X-687D01*
Y871D01*
X-676Y873D01*
X-656Y886D01*
X-643Y906D01*
X-641Y917D01*
D02*
G37*
G36*
X-713D02*
X-759D01*
X-757Y906D01*
X-744Y886D01*
X-724Y873D01*
X-713Y871D01*
Y917D01*
D02*
G37*
G36*
X690Y875D02*
X633D01*
Y823D01*
X690D01*
Y875D01*
D02*
G37*
G36*
Y797D02*
X633D01*
Y745D01*
X690D01*
Y797D01*
D02*
G37*
G36*
X370Y910D02*
X333D01*
Y825D01*
Y740D01*
X370D01*
Y774D01*
X550D01*
Y745D01*
X607D01*
Y810D01*
Y875D01*
X550D01*
Y846D01*
X370D01*
Y910D01*
D02*
G37*
G36*
X3135Y580D02*
X3083D01*
Y523D01*
X3135D01*
Y580D01*
D02*
G37*
G36*
X-2565D02*
X-2617D01*
Y523D01*
X-2565D01*
Y580D01*
D02*
G37*
G36*
X3057D02*
X3005D01*
Y523D01*
X3057D01*
Y580D01*
D02*
G37*
G36*
X-2643D02*
X-2695D01*
Y523D01*
X-2643D01*
Y580D01*
D02*
G37*
G36*
X1235D02*
X1183D01*
Y523D01*
X1235D01*
Y580D01*
D02*
G37*
G36*
X1157D02*
X1105D01*
Y523D01*
X1157D01*
Y580D01*
D02*
G37*
G36*
X-675Y570D02*
X-727D01*
Y513D01*
X-675D01*
Y570D01*
D02*
G37*
G36*
X-753D02*
X-805D01*
Y513D01*
X-753D01*
Y570D01*
D02*
G37*
G36*
X3135Y497D02*
X3083D01*
Y440D01*
X3135D01*
Y497D01*
D02*
G37*
G36*
X3057D02*
X3005D01*
Y440D01*
X3057D01*
Y497D01*
D02*
G37*
G36*
X1235Y497D02*
X1183D01*
Y440D01*
X1235D01*
Y497D01*
D02*
G37*
G36*
X1157D02*
X1105D01*
Y440D01*
X1157D01*
Y497D01*
D02*
G37*
G36*
X-2565Y497D02*
X-2617D01*
Y440D01*
X-2565D01*
Y497D01*
D02*
G37*
G36*
X-2643D02*
X-2695D01*
Y440D01*
X-2643D01*
Y497D01*
D02*
G37*
G36*
X-675Y487D02*
X-727D01*
Y430D01*
X-675D01*
Y487D01*
D02*
G37*
G36*
X-753D02*
X-805D01*
Y430D01*
X-753D01*
Y487D01*
D02*
G37*
G36*
X2596Y639D02*
X2562Y635D01*
X2530Y621D01*
X2503Y601D01*
X2483Y574D01*
X2469Y542D01*
X2465Y508D01*
X2469Y474D01*
X2483Y442D01*
X2503Y415D01*
X2530Y395D01*
X2562Y381D01*
X2596Y377D01*
X2630Y381D01*
X2662Y395D01*
X2689Y415D01*
X2709Y442D01*
X2723Y474D01*
X2727Y508D01*
X2723Y542D01*
X2709Y574D01*
X2689Y601D01*
X2662Y621D01*
X2630Y635D01*
X2596Y639D01*
D02*
G37*
G36*
X-1204D02*
X-1238Y635D01*
X-1270Y621D01*
X-1297Y601D01*
X-1317Y574D01*
X-1331Y542D01*
X-1335Y508D01*
X-1331Y474D01*
X-1317Y442D01*
X-1297Y415D01*
X-1270Y395D01*
X-1238Y381D01*
X-1204Y377D01*
X-1170Y381D01*
X-1138Y395D01*
X-1111Y415D01*
X-1091Y442D01*
X-1077Y474D01*
X-1073Y508D01*
X-1077Y542D01*
X-1091Y574D01*
X-1111Y601D01*
X-1138Y621D01*
X-1170Y635D01*
X-1204Y639D01*
D02*
G37*
G36*
X2850Y215D02*
X2808Y211D01*
X2768Y199D01*
X2730Y179D01*
X2698Y152D01*
X2671Y120D01*
X2651Y82D01*
X2639Y42D01*
X2635Y-0D01*
X2639Y-42D01*
X2651Y-82D01*
X2671Y-120D01*
X2698Y-152D01*
X2730Y-179D01*
X2768Y-199D01*
X2808Y-211D01*
X2850Y-215D01*
X2892Y-211D01*
X2932Y-199D01*
X2970Y-179D01*
X3002Y-152D01*
X3029Y-120D01*
X3049Y-82D01*
X3061Y-42D01*
X3065Y-0D01*
X3061Y42D01*
X3049Y82D01*
X3029Y120D01*
X3002Y152D01*
X2970Y179D01*
X2932Y199D01*
X2892Y211D01*
X2850Y215D01*
D02*
G37*
G36*
X950D02*
X908Y211D01*
X868Y199D01*
X830Y179D01*
X798Y152D01*
X771Y120D01*
X751Y82D01*
X739Y42D01*
X735Y-0D01*
X739Y-42D01*
X751Y-82D01*
X771Y-120D01*
X798Y-152D01*
X830Y-179D01*
X868Y-199D01*
X908Y-211D01*
X950Y-215D01*
X992Y-211D01*
X1032Y-199D01*
X1070Y-179D01*
X1102Y-152D01*
X1129Y-120D01*
X1149Y-82D01*
X1161Y-42D01*
X1165Y-0D01*
X1161Y42D01*
X1149Y82D01*
X1129Y120D01*
X1102Y152D01*
X1070Y179D01*
X1032Y199D01*
X992Y211D01*
X950Y215D01*
D02*
G37*
G36*
X-950D02*
X-992Y211D01*
X-1032Y199D01*
X-1070Y179D01*
X-1102Y152D01*
X-1129Y120D01*
X-1149Y82D01*
X-1161Y42D01*
X-1165Y-0D01*
X-1161Y-42D01*
X-1149Y-82D01*
X-1129Y-120D01*
X-1102Y-152D01*
X-1070Y-179D01*
X-1032Y-199D01*
X-992Y-211D01*
X-950Y-215D01*
X-908Y-211D01*
X-868Y-199D01*
X-830Y-179D01*
X-798Y-152D01*
X-771Y-120D01*
X-751Y-82D01*
X-739Y-42D01*
X-735Y-0D01*
X-739Y42D01*
X-751Y82D01*
X-771Y120D01*
X-798Y152D01*
X-830Y179D01*
X-868Y199D01*
X-908Y211D01*
X-950Y215D01*
D02*
G37*
G36*
X-2850D02*
X-2892Y211D01*
X-2932Y199D01*
X-2970Y179D01*
X-3002Y152D01*
X-3029Y120D01*
X-3049Y82D01*
X-3061Y42D01*
X-3065Y-0D01*
X-3061Y-42D01*
X-3049Y-82D01*
X-3029Y-120D01*
X-3002Y-152D01*
X-2970Y-179D01*
X-2932Y-199D01*
X-2892Y-211D01*
X-2850Y-215D01*
X-2808Y-211D01*
X-2768Y-199D01*
X-2730Y-179D01*
X-2698Y-152D01*
X-2671Y-120D01*
X-2651Y-82D01*
X-2639Y-42D01*
X-2635Y-0D01*
X-2639Y42D01*
X-2651Y82D01*
X-2671Y120D01*
X-2698Y152D01*
X-2730Y179D01*
X-2768Y199D01*
X-2808Y211D01*
X-2850Y215D01*
D02*
G37*
G36*
X-2565Y-1330D02*
X-2617D01*
Y-1387D01*
X-2565D01*
Y-1330D01*
D02*
G37*
G36*
X3135D02*
X3083D01*
Y-1387D01*
X3135D01*
Y-1330D01*
D02*
G37*
G36*
X1235D02*
X1183D01*
Y-1387D01*
X1235D01*
Y-1330D01*
D02*
G37*
G36*
X-665D02*
X-717D01*
Y-1387D01*
X-665D01*
Y-1330D01*
D02*
G37*
G36*
X-2643D02*
X-2695D01*
Y-1387D01*
X-2643D01*
Y-1330D01*
D02*
G37*
G36*
X3057D02*
X3005D01*
Y-1387D01*
X3057D01*
Y-1330D01*
D02*
G37*
G36*
X1157D02*
X1105D01*
Y-1387D01*
X1157D01*
Y-1330D01*
D02*
G37*
G36*
X-743D02*
X-795D01*
Y-1387D01*
X-743D01*
Y-1330D01*
D02*
G37*
G36*
X3135Y-1413D02*
X3083D01*
Y-1470D01*
X3135D01*
Y-1413D01*
D02*
G37*
G36*
X3057D02*
X3005D01*
Y-1470D01*
X3057D01*
Y-1413D01*
D02*
G37*
G36*
X1235D02*
X1183D01*
Y-1470D01*
X1235D01*
Y-1413D01*
D02*
G37*
G36*
X1157D02*
X1105D01*
Y-1470D01*
X1157D01*
Y-1413D01*
D02*
G37*
G36*
X-665D02*
X-717D01*
Y-1470D01*
X-665D01*
Y-1413D01*
D02*
G37*
G36*
X-743D02*
X-795D01*
Y-1470D01*
X-743D01*
Y-1413D01*
D02*
G37*
G36*
X-2565D02*
X-2617D01*
Y-1470D01*
X-2565D01*
Y-1413D01*
D02*
G37*
G36*
X-2643D02*
X-2695D01*
Y-1470D01*
X-2643D01*
Y-1413D01*
D02*
G37*
G36*
X2596Y-1261D02*
X2562Y-1265D01*
X2530Y-1279D01*
X2503Y-1299D01*
X2483Y-1326D01*
X2469Y-1358D01*
X2465Y-1392D01*
X2469Y-1426D01*
X2483Y-1458D01*
X2503Y-1485D01*
X2530Y-1505D01*
X2562Y-1519D01*
X2596Y-1523D01*
X2630Y-1519D01*
X2662Y-1505D01*
X2689Y-1485D01*
X2709Y-1458D01*
X2723Y-1426D01*
X2727Y-1392D01*
X2723Y-1358D01*
X2709Y-1326D01*
X2689Y-1299D01*
X2662Y-1279D01*
X2630Y-1265D01*
X2596Y-1261D01*
D02*
G37*
G36*
X696D02*
X662Y-1265D01*
X630Y-1279D01*
X603Y-1299D01*
X583Y-1326D01*
X569Y-1358D01*
X565Y-1392D01*
X569Y-1426D01*
X583Y-1458D01*
X603Y-1485D01*
X630Y-1505D01*
X662Y-1519D01*
X696Y-1523D01*
X730Y-1519D01*
X762Y-1505D01*
X789Y-1485D01*
X809Y-1458D01*
X823Y-1426D01*
X827Y-1392D01*
X823Y-1358D01*
X809Y-1326D01*
X789Y-1299D01*
X762Y-1279D01*
X730Y-1265D01*
X696Y-1261D01*
D02*
G37*
G36*
X-1204D02*
X-1238Y-1265D01*
X-1270Y-1279D01*
X-1297Y-1299D01*
X-1317Y-1326D01*
X-1331Y-1358D01*
X-1335Y-1392D01*
X-1331Y-1426D01*
X-1317Y-1458D01*
X-1297Y-1485D01*
X-1270Y-1505D01*
X-1238Y-1519D01*
X-1204Y-1523D01*
X-1170Y-1519D01*
X-1138Y-1505D01*
X-1111Y-1485D01*
X-1091Y-1458D01*
X-1077Y-1426D01*
X-1073Y-1392D01*
X-1077Y-1358D01*
X-1091Y-1326D01*
X-1111Y-1299D01*
X-1138Y-1279D01*
X-1170Y-1265D01*
X-1204Y-1261D01*
D02*
G37*
G36*
X-3104D02*
X-3138Y-1265D01*
X-3170Y-1279D01*
X-3197Y-1299D01*
X-3217Y-1326D01*
X-3231Y-1358D01*
X-3235Y-1392D01*
X-3231Y-1426D01*
X-3217Y-1458D01*
X-3197Y-1485D01*
X-3170Y-1505D01*
X-3138Y-1519D01*
X-3104Y-1523D01*
X-3070Y-1519D01*
X-3038Y-1505D01*
X-3011Y-1485D01*
X-2991Y-1458D01*
X-2977Y-1426D01*
X-2973Y-1392D01*
X-2977Y-1358D01*
X-2991Y-1326D01*
X-3011Y-1299D01*
X-3038Y-1279D01*
X-3070Y-1265D01*
X-3104Y-1261D01*
D02*
G37*
G36*
X2850Y-1685D02*
X2808Y-1689D01*
X2768Y-1701D01*
X2730Y-1721D01*
X2698Y-1748D01*
X2671Y-1780D01*
X2651Y-1818D01*
X2639Y-1858D01*
X2635Y-1900D01*
X2639Y-1942D01*
X2651Y-1982D01*
X2671Y-2020D01*
X2698Y-2052D01*
X2730Y-2079D01*
X2768Y-2099D01*
X2808Y-2111D01*
X2850Y-2115D01*
X2892Y-2111D01*
X2932Y-2099D01*
X2970Y-2079D01*
X3002Y-2052D01*
X3029Y-2020D01*
X3049Y-1982D01*
X3061Y-1942D01*
X3065Y-1900D01*
X3061Y-1858D01*
X3049Y-1818D01*
X3029Y-1780D01*
X3002Y-1748D01*
X2970Y-1721D01*
X2932Y-1701D01*
X2892Y-1689D01*
X2850Y-1685D01*
D02*
G37*
G36*
X950D02*
X908Y-1689D01*
X868Y-1701D01*
X830Y-1721D01*
X798Y-1748D01*
X771Y-1780D01*
X751Y-1818D01*
X739Y-1858D01*
X735Y-1900D01*
X739Y-1942D01*
X751Y-1982D01*
X771Y-2020D01*
X798Y-2052D01*
X830Y-2079D01*
X868Y-2099D01*
X908Y-2111D01*
X950Y-2115D01*
X992Y-2111D01*
X1032Y-2099D01*
X1070Y-2079D01*
X1102Y-2052D01*
X1129Y-2020D01*
X1149Y-1982D01*
X1161Y-1942D01*
X1165Y-1900D01*
X1161Y-1858D01*
X1149Y-1818D01*
X1129Y-1780D01*
X1102Y-1748D01*
X1070Y-1721D01*
X1032Y-1701D01*
X992Y-1689D01*
X950Y-1685D01*
D02*
G37*
G36*
X-950D02*
X-992Y-1689D01*
X-1032Y-1701D01*
X-1070Y-1721D01*
X-1102Y-1748D01*
X-1129Y-1780D01*
X-1149Y-1818D01*
X-1161Y-1858D01*
X-1165Y-1900D01*
X-1161Y-1942D01*
X-1149Y-1982D01*
X-1129Y-2020D01*
X-1102Y-2052D01*
X-1070Y-2079D01*
X-1032Y-2099D01*
X-992Y-2111D01*
X-950Y-2115D01*
X-908Y-2111D01*
X-868Y-2099D01*
X-830Y-2079D01*
X-798Y-2052D01*
X-771Y-2020D01*
X-751Y-1982D01*
X-739Y-1942D01*
X-735Y-1900D01*
X-739Y-1858D01*
X-751Y-1818D01*
X-771Y-1780D01*
X-798Y-1748D01*
X-830Y-1721D01*
X-868Y-1701D01*
X-908Y-1689D01*
X-950Y-1685D01*
D02*
G37*
G36*
X-2850D02*
X-2892Y-1689D01*
X-2932Y-1701D01*
X-2970Y-1721D01*
X-3002Y-1748D01*
X-3029Y-1780D01*
X-3049Y-1818D01*
X-3061Y-1858D01*
X-3065Y-1900D01*
X-3061Y-1942D01*
X-3049Y-1982D01*
X-3029Y-2020D01*
X-3002Y-2052D01*
X-2970Y-2079D01*
X-2932Y-2099D01*
X-2892Y-2111D01*
X-2850Y-2115D01*
X-2808Y-2111D01*
X-2768Y-2099D01*
X-2730Y-2079D01*
X-2698Y-2052D01*
X-2671Y-2020D01*
X-2651Y-1982D01*
X-2639Y-1942D01*
X-2635Y-1900D01*
X-2639Y-1858D01*
X-2651Y-1818D01*
X-2671Y-1780D01*
X-2698Y-1748D01*
X-2730Y-1721D01*
X-2768Y-1701D01*
X-2808Y-1689D01*
X-2850Y-1685D01*
D02*
G37*
G36*
X1007Y-2143D02*
X-1057D01*
Y-2380D01*
X-1057Y-2383D01*
Y-2393D01*
X-1057Y-2395D01*
Y-2633D01*
X582D01*
Y-2395D01*
X582Y-2393D01*
X588Y-2383D01*
X1007D01*
Y-2143D01*
D02*
G37*
G36*
X-991Y1057D02*
X-1037D01*
Y1011D01*
X-1026Y1013D01*
X-1006Y1026D01*
X-993Y1046D01*
X-991Y1057D01*
D02*
G37*
G36*
X-1063D02*
X-1109D01*
X-1107Y1046D01*
X-1094Y1026D01*
X-1074Y1013D01*
X-1063Y1011D01*
Y1057D01*
D02*
G37*
%LPD*%
D26*
X-1204Y2408D02*
D03*
X-3104D02*
D03*
Y508D02*
D03*
X-1204D02*
D03*
X-3104Y-1392D02*
D03*
X-1204D02*
D03*
X696D02*
D03*
X2596D02*
D03*
X696Y508D02*
D03*
X2596D02*
D03*
Y2408D02*
D03*
X696D02*
D03*
D27*
X-569Y2154D02*
D03*
X-2469D02*
D03*
Y254D02*
D03*
X-569D02*
D03*
X-2469Y-1646D02*
D03*
X-569D02*
D03*
X1331D02*
D03*
X3231D02*
D03*
X1331Y254D02*
D03*
X3231D02*
D03*
Y2154D02*
D03*
X1331D02*
D03*
D28*
X-950Y1900D02*
D03*
X-2850D02*
D03*
Y-0D02*
D03*
X-950D02*
D03*
X-2850Y-1900D02*
D03*
X-950D02*
D03*
X950D02*
D03*
X2850D02*
D03*
X950Y-0D02*
D03*
X2850D02*
D03*
Y1900D02*
D03*
X950D02*
D03*
D30*
X-1680Y2508D02*
D03*
X-1760D02*
D03*
X-2240D02*
D03*
X-2320D02*
D03*
D31*
X-1825D02*
D03*
X-2175D02*
D03*
X-1875D02*
D03*
X-2125D02*
D03*
X-1925D02*
D03*
X-2075D02*
D03*
X-1975D02*
D03*
X-2025D02*
D03*
D32*
X-1489Y2575D02*
D03*
X-2511D02*
D03*
X-1489Y2968D02*
D03*
X-2511D02*
D03*
D33*
X-700Y1240D02*
D03*
Y1080D02*
D03*
X1175Y2720D02*
D03*
Y2880D02*
D03*
X-2392Y1445D02*
D03*
Y1605D02*
D03*
X-1500Y1480D02*
D03*
Y1320D02*
D03*
X-330Y2310D02*
D03*
Y2150D02*
D03*
X-170Y1950D02*
D03*
Y2110D02*
D03*
X-2495Y1120D02*
D03*
Y1280D02*
D03*
X-550Y1690D02*
D03*
Y1530D02*
D03*
X-540Y1050D02*
D03*
Y1210D02*
D03*
X620Y810D02*
D03*
Y970D02*
D03*
X-2870Y2330D02*
D03*
Y2490D02*
D03*
X-2740Y2330D02*
D03*
Y2490D02*
D03*
X1050Y2220D02*
D03*
Y2380D02*
D03*
D34*
X2155Y2650D02*
D03*
X1995D02*
D03*
X1470D02*
D03*
X1630D02*
D03*
X-2630Y510D02*
D03*
X-2470D02*
D03*
X-1590Y1680D02*
D03*
X-1430D02*
D03*
X-1590Y1800D02*
D03*
X-1430D02*
D03*
X-890Y1190D02*
D03*
X-1050D02*
D03*
X-170Y1820D02*
D03*
X-330D02*
D03*
X-2870Y2200D02*
D03*
X-2710D02*
D03*
X-2250Y1430D02*
D03*
X-2090D02*
D03*
X-2250Y1600D02*
D03*
X-2090D02*
D03*
X-570Y-1400D02*
D03*
X-730D02*
D03*
X-2470D02*
D03*
X-2630D02*
D03*
X-580Y500D02*
D03*
X-740D02*
D03*
X3240Y1620D02*
D03*
X3080D02*
D03*
X3230Y510D02*
D03*
X3070D02*
D03*
X1330D02*
D03*
X1170D02*
D03*
X3230Y-1400D02*
D03*
X3070D02*
D03*
X1330D02*
D03*
X1170D02*
D03*
D35*
X-855Y1435D02*
D03*
X-1145D02*
D03*
Y1315D02*
D03*
X-855D02*
D03*
D36*
X-2083Y1160D02*
D03*
X-2337Y1058D02*
D03*
Y1262D02*
D03*
D37*
X465Y1530D02*
D03*
Y1450D02*
D03*
Y1370D02*
D03*
Y1290D02*
D03*
Y970D02*
D03*
Y1050D02*
D03*
Y1130D02*
D03*
Y1210D02*
D03*
X-385Y1530D02*
D03*
Y1450D02*
D03*
Y1370D02*
D03*
Y1290D02*
D03*
Y970D02*
D03*
Y1050D02*
D03*
Y1130D02*
D03*
Y1210D02*
D03*
D38*
X-240Y825D02*
D03*
X-160D02*
D03*
X-80D02*
D03*
X0D02*
D03*
X320D02*
D03*
X240D02*
D03*
X160D02*
D03*
X80D02*
D03*
Y1675D02*
D03*
X160D02*
D03*
X240D02*
D03*
X320D02*
D03*
X0D02*
D03*
X-80D02*
D03*
X-160D02*
D03*
X-240D02*
D03*
D39*
X-1995Y2165D02*
D03*
X-1900D02*
D03*
X-1805D02*
D03*
Y1935D02*
D03*
X-1900D02*
D03*
D40*
X-1995D02*
D03*
D41*
X-40Y1290D02*
X465D01*
X1992Y2648D02*
X1995Y2650D01*
X1195Y2520D02*
X1270D01*
X1055Y2380D02*
X1195Y2520D01*
X1050Y2380D02*
X1055D01*
X3231Y-1646D02*
Y-1061D01*
X570Y-990D02*
X3160D01*
X80Y-500D02*
X570Y-990D01*
X80Y-500D02*
Y825D01*
X1331Y-1646D02*
Y-1321D01*
X650Y-1180D02*
X1190D01*
X0Y-530D02*
X650Y-1180D01*
X0Y-530D02*
Y825D01*
X-1495Y1480D02*
Y1615D01*
X-1430Y1680D01*
X-1500Y1480D02*
X-1495D01*
X-700Y930D02*
Y1080D01*
X-1050Y1070D02*
Y1190D01*
X-1050Y1190D02*
X-1050Y1190D01*
X-690Y700D02*
X-420Y970D01*
X-2380Y700D02*
X-690D01*
X-2470Y610D02*
X-2380Y700D01*
X1300Y2720D02*
X1370Y2650D01*
X1175Y2720D02*
X1300D01*
X1370Y2650D02*
X1470D01*
X1170Y2720D02*
X1175D01*
X871Y2421D02*
X1170Y2720D01*
X709Y2421D02*
X871D01*
X696Y2408D02*
X709Y2421D01*
X320Y1675D02*
Y1870D01*
X670Y2220D01*
X1050D01*
X1265D01*
X1331Y2154D01*
X200Y1370D02*
X465D01*
X465Y1370D01*
X-1430Y1680D02*
X-1280D01*
X-1430Y1800D02*
X-1280D01*
X-200Y1130D02*
X-170Y1160D01*
Y1530D01*
X-110Y1050D02*
X-110Y1050D01*
X-385Y1050D02*
X-110D01*
X-385Y1130D02*
X-200D01*
X-450Y1810D02*
Y1900D01*
X-330Y2020D01*
Y2150D01*
X-565D02*
X-330D01*
X-569Y2154D02*
X-565Y2150D01*
X-665Y1365D02*
X-575D01*
X-570Y1370D01*
X-2470Y510D02*
Y610D01*
Y255D02*
Y510D01*
Y255D02*
X-2469Y254D01*
X-420Y970D02*
X-385D01*
X-569Y254D02*
Y691D01*
X-435Y825D01*
X-240D01*
X1190Y-1180D02*
X1331Y-1321D01*
X-2469Y-1646D02*
Y-1329D01*
X-160Y-500D02*
Y825D01*
X-730Y-1070D02*
X-160Y-500D01*
X-2210Y-1070D02*
X-730D01*
X-569Y-1646D02*
Y-1019D01*
X-80Y-530D02*
Y825D01*
X-569Y-1019D02*
X-80Y-530D01*
X-2469Y-1329D02*
X-2210Y-1070D01*
X410Y1620D02*
X1160D01*
X337Y1547D02*
X410Y1620D01*
X337Y1473D02*
Y1547D01*
X3160Y-990D02*
X3231Y-1061D01*
X1331Y254D02*
Y839D01*
X1120Y1050D02*
X1331Y839D01*
X465Y1050D02*
X1120D01*
X3231Y254D02*
Y859D01*
X2960Y1130D02*
X3231Y859D01*
X465Y1130D02*
X2960D01*
X3240Y1490D02*
Y1620D01*
X2960Y1210D02*
X3240Y1490D01*
X465Y1210D02*
X2960D01*
X3240Y1620D02*
Y2145D01*
X3231Y2154D02*
X3240Y2145D01*
X1160Y1620D02*
X1630Y2090D01*
Y2650D01*
X337Y1473D02*
X360Y1450D01*
X465D01*
X1240Y1530D02*
X2155Y2445D01*
Y2650D01*
X2155Y2650D02*
X2155Y2650D01*
X465Y1530D02*
X1240D01*
X-2515Y2200D02*
X-2469Y2154D01*
X-2710Y2200D02*
X-2515D01*
X2155Y2650D02*
Y2875D01*
X2154Y2875D02*
X2155Y2875D01*
X1630Y2650D02*
X1638Y2658D01*
Y2867D01*
X1646Y2875D01*
X-385Y1210D02*
X-385Y1210D01*
X-540Y1210D02*
X-385D01*
X-604Y1290D02*
X-385D01*
X-634Y1260D02*
X-604Y1290D01*
X-680Y1260D02*
X-634D01*
X-700Y1240D02*
X-680Y1260D01*
X-700Y1240D02*
Y1330D01*
X-665Y1365D01*
X-890Y1095D02*
X-835D01*
X-770Y1160D01*
X-605D01*
X-555Y1210D01*
X-550D01*
X-840Y1450D02*
X-385D01*
X-855Y1435D02*
X-840Y1450D01*
X-1995Y1835D02*
Y1935D01*
Y1835D02*
X-1840Y1680D01*
X-1805Y1845D02*
Y1935D01*
Y1845D02*
X-1760Y1800D01*
X-1590D01*
X-1840Y1680D02*
X-1590D01*
X-174Y2824D02*
X-172Y2822D01*
Y2111D02*
Y2822D01*
Y2111D02*
X-170Y2110D01*
Y1830D02*
Y1950D01*
Y1820D02*
Y1830D01*
X-165Y1680D02*
Y1825D01*
X-170Y1830D02*
X-165Y1825D01*
X-170Y1820D02*
X-170Y1820D01*
X-165Y1680D02*
X-160Y1675D01*
X-340Y1690D02*
X-235D01*
X-340D02*
X-330Y1700D01*
Y1820D01*
X-550Y1690D02*
X-340D01*
X-174Y2824D02*
X-173Y2825D01*
X-170Y1950D02*
X-167Y1948D01*
X325Y810D02*
X620D01*
X320Y815D02*
X325Y810D01*
X320Y815D02*
Y825D01*
X465Y970D02*
X465Y970D01*
X620D01*
X-550Y1530D02*
X-385D01*
D42*
X-1875Y2508D02*
Y2630D01*
X-2048Y2802D02*
X-1875Y2630D01*
X-2742Y2802D02*
X-2048D01*
X-2690Y2740D02*
X-2235D01*
X-2740Y2690D02*
X-2690Y2740D01*
X-2740Y2490D02*
Y2690D01*
X-2870Y2675D02*
X-2742Y2802D01*
X-2870Y2490D02*
Y2675D01*
X-2025Y2408D02*
X-2010Y2392D01*
X-1925D01*
X-1805Y2165D02*
Y2273D01*
X-1925Y2392D02*
X-1805Y2273D01*
X-1925Y2392D02*
Y2440D01*
X-2235Y2740D02*
X-2175Y2680D01*
Y2508D02*
Y2680D01*
X-2025Y2408D02*
Y2508D01*
X-1975D02*
Y2612D01*
X-2002Y2640D02*
X-1975Y2612D01*
X-2045Y2640D02*
X-2002D01*
X-2075Y2610D02*
X-2045Y2640D01*
X-2075Y2508D02*
Y2610D01*
Y2275D02*
Y2440D01*
X-1995Y2165D02*
Y2195D01*
X-2000Y2170D02*
X-1995Y2165D01*
X-2075Y2275D02*
X-1995Y2195D01*
X788Y2877D02*
X1390D01*
X210Y2300D02*
X788Y2877D01*
X-1500Y1320D02*
X-1300D01*
X-1150D01*
X1390Y2877D02*
X1392Y2875D01*
X-1150Y1320D02*
X-1145Y1315D01*
X-1500Y1320D02*
X-1498Y1318D01*
X-2090Y1700D02*
Y2042D01*
X-2057Y2075D01*
X-2090Y1600D02*
Y1700D01*
X-2000D01*
X-2057Y2075D02*
X-1918D01*
X-1900Y2093D01*
Y2165D01*
X-1900Y2165D01*
X-913Y-2438D02*
X-1012D01*
Y-2513D01*
X-963D01*
X-1012D01*
Y-2588D01*
X-863Y-2438D02*
X-763D01*
Y-2463D01*
X-863Y-2563D01*
Y-2588D01*
X-763D01*
X-713Y-2488D02*
X-688D01*
Y-2513D01*
X-713D01*
Y-2488D01*
Y-2563D02*
X-688D01*
Y-2588D01*
X-713D01*
Y-2563D01*
X-488Y-2588D02*
X-588D01*
X-488Y-2488D01*
Y-2463D01*
X-513Y-2438D01*
X-563D01*
X-588Y-2463D01*
X-363Y-2588D02*
Y-2438D01*
X-438Y-2513D01*
X-338D01*
X-288Y-2588D02*
X-238D01*
X-263D01*
Y-2438D01*
X-288Y-2463D01*
X-163D02*
X-138Y-2438D01*
X-88D01*
X-63Y-2463D01*
Y-2563D01*
X-88Y-2588D01*
X-138D01*
X-163Y-2563D01*
Y-2463D01*
X87Y-2588D02*
X-13D01*
X87Y-2488D01*
Y-2463D01*
X62Y-2438D01*
X12D01*
X-13Y-2463D01*
X137D02*
X162Y-2438D01*
X212D01*
X237Y-2463D01*
Y-2563D01*
X212Y-2588D01*
X162D01*
X137Y-2563D01*
Y-2463D01*
X387Y-2588D02*
X287D01*
X387Y-2488D01*
Y-2463D01*
X362Y-2438D01*
X312D01*
X287Y-2463D01*
X437D02*
X462Y-2438D01*
X512D01*
X537Y-2463D01*
Y-2563D01*
X512Y-2588D01*
X462D01*
X437Y-2563D01*
Y-2463D01*
X-1012Y-2188D02*
Y-2338D01*
Y-2263D01*
X-913D01*
Y-2188D01*
Y-2338D01*
X-838D02*
X-788D01*
X-763Y-2313D01*
Y-2263D01*
X-788Y-2238D01*
X-838D01*
X-863Y-2263D01*
Y-2313D01*
X-838Y-2338D01*
X-688Y-2213D02*
Y-2238D01*
X-713D01*
X-663D01*
X-688D01*
Y-2313D01*
X-663Y-2338D01*
X-588Y-2263D02*
X-488D01*
X-438Y-2188D02*
Y-2338D01*
X-363D01*
X-338Y-2313D01*
Y-2288D01*
X-363Y-2263D01*
X-438D01*
X-363D01*
X-338Y-2238D01*
Y-2213D01*
X-363Y-2188D01*
X-438D01*
X-263Y-2338D02*
X-213D01*
X-188Y-2313D01*
Y-2263D01*
X-213Y-2238D01*
X-263D01*
X-288Y-2263D01*
Y-2313D01*
X-263Y-2338D01*
X-113Y-2238D02*
X-63D01*
X-38Y-2263D01*
Y-2338D01*
X-113D01*
X-138Y-2313D01*
X-113Y-2288D01*
X-38D01*
X12Y-2238D02*
Y-2338D01*
Y-2288D01*
X37Y-2263D01*
X62Y-2238D01*
X87D01*
X262Y-2188D02*
Y-2338D01*
X187D01*
X162Y-2313D01*
Y-2263D01*
X187Y-2238D01*
X262D01*
X462Y-2188D02*
Y-2288D01*
X512Y-2338D01*
X562Y-2288D01*
Y-2188D01*
X612Y-2338D02*
X662D01*
X637D01*
Y-2188D01*
X612Y-2213D01*
X737Y-2338D02*
Y-2313D01*
X762D01*
Y-2338D01*
X737D01*
X862Y-2213D02*
X887Y-2188D01*
X937D01*
X962Y-2213D01*
Y-2313D01*
X937Y-2338D01*
X887D01*
X862Y-2313D01*
Y-2213D01*
D43*
X-2250Y1600D02*
X-2240Y1610D01*
X-1760Y2350D02*
Y2508D01*
X-2240Y2290D02*
Y2508D01*
Y1610D02*
Y2290D01*
X-2092Y1202D02*
Y1598D01*
X-1020Y1190D02*
Y1390D01*
X620Y970D02*
X780D01*
X850Y900D01*
Y662D02*
Y900D01*
X696Y508D02*
X850Y662D01*
X-2680Y1120D02*
X-2495D01*
X-3104Y696D02*
X-2680Y1120D01*
X-3104Y508D02*
Y696D01*
X-890Y1095D02*
Y1190D01*
Y1000D02*
Y1095D01*
X-870Y1315D02*
X-855D01*
X-880Y1305D02*
X-870Y1315D01*
X-880Y1200D02*
Y1305D01*
X-890Y1190D02*
X-880Y1200D01*
X-1030Y860D02*
X-890Y1000D01*
X-1300Y1320D02*
Y1490D01*
Y860D02*
Y1320D01*
X-1260Y1530D02*
X-550D01*
X-1300Y1490D02*
X-1260Y1530D01*
X-2430Y860D02*
X-1300D01*
X-1030D01*
X-1060Y1430D02*
X-1020Y1390D01*
X-1140Y1430D02*
X-1060D01*
X-1145Y1435D02*
X-1140Y1430D01*
X-2495Y925D02*
X-2430Y860D01*
X-2495Y925D02*
Y1120D01*
X-2399D01*
X-2337Y1058D01*
X-2093Y1200D02*
X-2092Y1202D01*
Y1598D02*
X-2090Y1600D01*
X-2500Y1285D02*
X-2495Y1280D01*
X-2252Y1602D02*
X-2250Y1600D01*
X-2367Y1602D02*
X-2252D01*
X-2370Y1605D02*
X-2367Y1602D01*
D44*
X-770Y3047D02*
Y2967D01*
X-730D01*
X-717Y2981D01*
Y2994D01*
X-730Y3007D01*
X-770D01*
X-730D01*
X-717Y3021D01*
Y3034D01*
X-730Y3047D01*
X-770D01*
X-650D02*
X-677D01*
X-690Y3034D01*
Y2981D01*
X-677Y2967D01*
X-650D01*
X-637Y2981D01*
Y3034D01*
X-650Y3047D01*
X-570D02*
X-597D01*
X-610Y3034D01*
Y2981D01*
X-597Y2967D01*
X-570D01*
X-557Y2981D01*
Y3034D01*
X-570Y3047D01*
X-530D02*
X-477D01*
X-503D01*
Y2967D01*
X-450Y3007D02*
X-397D01*
X-330Y3047D02*
X-357D01*
X-370Y3034D01*
Y2981D01*
X-357Y2967D01*
X-330D01*
X-317Y2981D01*
Y3034D01*
X-330Y3047D01*
X-290Y2941D02*
Y3021D01*
X-250D01*
X-237Y3007D01*
Y2981D01*
X-250Y2967D01*
X-290D01*
X-197Y3034D02*
Y3021D01*
X-210D01*
X-184D01*
X-197D01*
Y2981D01*
X-184Y2967D01*
X-144D02*
X-117D01*
X-130D01*
Y3021D01*
X-144D01*
X-64Y2967D02*
X-37D01*
X-24Y2981D01*
Y3007D01*
X-37Y3021D01*
X-64D01*
X-77Y3007D01*
Y2981D01*
X-64Y2967D01*
X3D02*
Y3021D01*
X43D01*
X56Y3007D01*
Y2967D01*
X83D02*
X123D01*
X136Y2981D01*
X123Y2994D01*
X96D01*
X83Y3007D01*
X96Y3021D01*
X136D01*
D45*
X1165Y2992D02*
Y3072D01*
X1205D01*
X1218Y3059D01*
Y3032D01*
X1205Y3019D01*
X1165D01*
X1192D02*
X1218Y2992D01*
X1298Y3059D02*
X1285Y3072D01*
X1258D01*
X1245Y3059D01*
Y3046D01*
X1258Y3032D01*
X1285D01*
X1298Y3019D01*
Y3006D01*
X1285Y2992D01*
X1258D01*
X1245Y3006D01*
X1325Y3072D02*
X1378D01*
X1352D01*
Y2992D01*
X1405D02*
X1458Y3046D01*
X1485Y3072D02*
Y2992D01*
X1525D01*
X1538Y3006D01*
Y3059D01*
X1525Y3072D01*
X1485D01*
X1565D02*
X1592D01*
X1578D01*
Y2992D01*
X1565D01*
X1592D01*
X1672Y3072D02*
X1645D01*
X1632Y3059D01*
Y3006D01*
X1645Y2992D01*
X1672D01*
X1685Y3006D01*
Y3059D01*
X1672Y3072D01*
X1711Y2992D02*
X1765Y3046D01*
X1845Y3059D02*
X1831Y3072D01*
X1805D01*
X1791Y3059D01*
Y3006D01*
X1805Y2992D01*
X1831D01*
X1845Y3006D01*
Y3032D01*
X1818D01*
X1871Y2992D02*
Y3072D01*
X1925Y2992D01*
Y3072D01*
X1951D02*
Y2992D01*
X1991D01*
X2005Y3006D01*
Y3059D01*
X1991Y3072D01*
X1951D01*
X2031Y2992D02*
X2085Y3046D01*
X2165Y3059D02*
X2151Y3072D01*
X2125D01*
X2111Y3059D01*
Y3006D01*
X2125Y2992D01*
X2151D01*
X2165Y3006D01*
X2191Y3072D02*
Y2992D01*
X2245D01*
X2271Y3072D02*
Y2992D01*
Y3019D01*
X2325Y3072D01*
X2285Y3032D01*
X2325Y2992D01*
X2351D02*
X2405Y3046D01*
X2431Y3072D02*
Y3019D01*
X2458Y2992D01*
X2485Y3019D01*
Y3072D01*
X2565Y3059D02*
X2551Y3072D01*
X2525D01*
X2511Y3059D01*
Y3006D01*
X2525Y2992D01*
X2551D01*
X2565Y3006D01*
X2645Y3059D02*
X2631Y3072D01*
X2605D01*
X2591Y3059D01*
Y3006D01*
X2605Y2992D01*
X2631D01*
X2645Y3006D01*
D46*
X-1711Y2625D02*
D03*
X-2289D02*
D03*
D47*
X-173Y2825D02*
D03*
X-427D02*
D03*
X1392Y2875D02*
D03*
X1646D02*
D03*
X1900D02*
D03*
X2154D02*
D03*
X2408D02*
D03*
D48*
X-40Y1290D02*
D03*
X-1760Y2350D02*
D03*
X1810Y2520D02*
D03*
X1270D02*
D03*
X-2240Y2290D02*
D03*
X-700Y930D02*
D03*
X-1050Y1070D02*
D03*
X210Y2300D02*
D03*
X200Y1370D02*
D03*
X-1280Y1680D02*
D03*
Y1800D02*
D03*
X-170Y1530D02*
D03*
X-110Y1050D02*
D03*
X-450Y1810D02*
D03*
X-570Y1370D02*
D03*
X-2000Y1700D02*
D03*
M02*
